                                                                        S      1
File generated by HOOPS Exchange Version 24.2.0                         S      2
                                                                        S      3
1H,,1H;,,8H1box.igs,14HHOOPS Exchange,6H24.2.0,32,24,8,56,15,,1.,2,2HMM,G      1
1000,1.,13H251210.084223,1D-05,1000000.,,,9,0,13H251210.084223;         G      2
     502       1       1       0   65535       0       0       000010001D      1
     502    1000       0       7       1                    Box1       0D      2
     110       8       1       0       0       0       0       000010000D      3
     110    1000       0       2       0                               0D      4
     110      10       1       0       0       0       0       000010000D      5
     110    1000       0       2       0                               0D      6
     110      12       1       0       0       0       0       000010000D      7
     110    1000       0       2       0                               0D      8
     110      14       1       0       0       0       0       000010000D      9
     110    1000       0       2       0                               0D     10
     110      16       1       0       0       0       0       000010000D     11
     110    1000       0       2       0                               0D     12
     110      18       1       0       0       0       0       000010000D     13
     110    1000       0       2       0                               0D     14
     110      20       1       0       0       0       0       000010000D     15
     110    1000       0       2       0                               0D     16
     110      22       1       0       0       0       0       000010000D     17
     110    1000       0       2       0                               0D     18
     110      24       1       0       0       0       0       000010000D     19
     110    1000       0       2       0                               0D     20
     110      26       1       0       0       0       0       000010000D     21
     110    1000       0       2       0                               0D     22
     110      28       1       0       0       0       0       000010000D     23
     110    1000       0       2       0                               0D     24
     110      30       1       0       0       0       0       000010000D     25
     110    1000       0       2       0                               0D     26
     504      32       1       0   65535       0       0       000010001D     27
     504    1000       0       3       1                    Box1       0D     28
     116      35       1       0       0       0       0       000010200D     29
     116    1000       0       1       0                               0D     30
     123      36       1       0       0       0       0       000010200D     31
     123    1000       0       2       0                               0D     32
     123      38       1       0       0       0       0       000010200D     33
     123    1000       0       1       0                               0D     34
     190      39       1       0       0       0       0       000010000D     35
     190    1000       0       1       1                               0D     36
     508      40       1       0       0       0       0       000010001D     37
     508    1000       0       1       1                               0D     38
     510      41       1       0   65535       0       0       000010001D     39
     510    1000       0       1       1                               0D     40
     116      42       1       0       0       0       0       000010200D     41
     116    1000       0       1       0                               0D     42
     123      43       1       0       0       0       0       000010200D     43
     123    1000       0       1       0                               0D     44
     123      44       1       0       0       0       0       000010200D     45
     123    1000       0       2       0                               0D     46
     190      46       1       0       0       0       0       000010000D     47
     190    1000       0       1       1                               0D     48
     508      47       1       0       0       0       0       000010001D     49
     508    1000       0       1       1                               0D     50
     510      48       1       0   65535       0       0       000010001D     51
     510    1000       0       1       1                               0D     52
     116      49       1       0       0       0       0       000010200D     53
     116    1000       0       1       0                               0D     54
     123      50       1       0       0       0       0       000010200D     55
     123    1000       0       2       0                               0D     56
     123      52       1       0       0       0       0       000010200D     57
     123    1000       0       1       0                               0D     58
     190      53       1       0       0       0       0       000010000D     59
     190    1000       0       1       1                               0D     60
     508      54       1       0       0       0       0       000010001D     61
     508    1000       0       1       1                               0D     62
     510      55       1       0   65535       0       0       000010001D     63
     510    1000       0       1       1                               0D     64
     116      56       1       0       0       0       0       000010200D     65
     116    1000       0       1       0                               0D     66
     123      57       1       0       0       0       0       000010200D     67
     123    1000       0       1       0                               0D     68
     123      58       1       0       0       0       0       000010200D     69
     123    1000       0       2       0                               0D     70
     190      60       1       0       0       0       0       000010000D     71
     190    1000       0       1       1                               0D     72
     508      61       1       0       0       0       0       000010001D     73
     508    1000       0       1       1                               0D     74
     510      62       1       0   65535       0       0       000010001D     75
     510    1000       0       1       1                               0D     76
     116      63       1       0       0       0       0       000010200D     77
     116    1000       0       1       0                               0D     78
     123      64       1       0       0       0       0       000010200D     79
     123    1000       0       2       0                               0D     80
     123      66       1       0       0       0       0       000010200D     81
     123    1000       0       1       0                               0D     82
     190      67       1       0       0       0       0       000010000D     83
     190    1000       0       1       1                               0D     84
     508      68       1       0       0       0       0       000010001D     85
     508    1000       0       1       1                               0D     86
     510      69       1       0   65535       0       0       000010001D     87
     510    1000       0       1       1                               0D     88
     116      70       1       0       0       0       0       000010200D     89
     116    1000       0       1       0                               0D     90
     123      71       1       0       0       0       0       000010200D     91
     123    1000       0       2       0                               0D     92
     123      73       1       0       0       0       0       000010200D     93
     123    1000       0       1       0                               0D     94
     190      74       1       0       0       0       0       000010000D     95
     190    1000       0       1       1                               0D     96
     508      75       1       0       0       0       0       000010001D     97
     508    1000       0       1       1                               0D     98
     510      76       1       0   65535       0       0       000010001D     99
     510    1000       0       1       1                               0D    100
     514      77       1       0       0       0       0       000010000D    101
     514    1000       0       1       1                               0D    102
     186      78       1       0   65535       0       0       000000001D    103
     186    1000       0       1       0                    Box1       0D    104
502,8,-77.8892327271865,-117.566367948024,6.66133814775094D-16,        1P      1
76.6387674223999,-46.7066673434535,6.66133814775094D-16,               1P      2
-77.8892327271865,-117.566367948024,150.,76.6387674223999,             1P      3
-46.7066673434535,150.,-76.6387674223999,-120.293332656547,0.,         1P      4
77.8892327271865,-49.4336320519756,0.,77.8892327271865,                1P      5
-49.4336320519756,150.,-76.6387674223999,-120.293332656547,150.,       1P      6
0,0;                                                                   1P      7
110,-77.8892327271865,-117.566367948024,3.08148791101958D-30,          3P      8
76.6387674223999,-46.7066673434534,-3.08148791101958D-30,0,0;          3P      9
110,-77.8892327271865,-117.566367948024,150.,-77.8892327271865,        5P     10
-117.566367948024,0.,0,0;                                              5P     11
110,76.6387674223999,-46.7066673434535,150.,-77.8892327271865,         7P     12
-117.566367948024,150.,0,0;                                            7P     13
110,76.6387674223999,-46.7066673434535,1.4210854715202D-14,            9P     14
76.6387674223999,-46.7066673434535,150.,0,0;                           9P     15
110,-76.6387674223999,-120.293332656547,0.,-77.8892327271865,         11P     16
-117.566367948024,6.66133814775112D-16,0,0;                           11P     17
110,77.8892327271865,-49.4336320519756,-1.54074395550979D-30,         13P     18
76.6387674224,-46.7066673434535,6.66133814775092D-16,0,0;             13P     19
110,77.8892327271865,-49.4336320519756,-3.08148791101958D-30,         15P     20
-76.6387674223999,-120.293332656547,3.08148791101958D-30,0,0;         15P     21
110,77.8892327271865,-49.4336320519756,150.,76.6387674224,            17P     22
-46.7066673434535,150.,0,0;                                           17P     23
110,77.8892327271865,-49.4336320519756,150.,77.8892327271865,         19P     24
-49.4336320519756,1.4210854715202D-14,0,0;                            19P     25
110,-76.6387674223999,-120.293332656547,150.,-77.8892327271865,       21P     26
-117.566367948024,150.,0,0;                                           21P     27
110,-76.6387674223999,-120.293332656547,150.,77.8892327271865,        23P     28
-49.4336320519756,150.,0,0;                                           23P     29
110,-76.6387674223999,-120.293332656547,0.,-76.6387674223999,         25P     30
-120.293332656547,150.,0,0;                                           25P     31
504,12,3,1,1,1,2,5,1,3,1,1,7,1,4,1,3,9,1,2,1,4,11,1,5,1,1,13,1,       27P     32
6,1,2,15,1,6,1,5,17,1,7,1,4,19,1,7,1,6,21,1,8,1,3,23,1,8,1,7,25,      27P     33
1,5,1,8,0,0;                                                          27P     34
116,-0.625232652393275,-82.136517645739,75.,0,0,0;                    29P     35
123,-0.416821768262183,0.908988236174037,2.22044604925031D-16,0,      31P     36
0,0;                                                                  31P     37
123,9.25530248579291D-17,-2.01835933782765D-16,1.,0,0,0;              33P     38
190,29,31,33,0,0;                                                     35P     39
508,4,0,27,1,0,0,0,27,2,0,0,0,27,3,0,0,0,27,4,0,0,0,0;                37P     40
510,35,1,1,37,0,0;                                                    39P     41
116,0.625232652393268,-84.8634823542611,0.,0,0,0;                     41P     42
123,-9.25530248579292D-17,2.01835933782765D-16,-1.,0,0,0;             43P     43
123,-0.416821768262183,0.908988236174037,2.22044604925031D-16,0,      45P     44
0,0;                                                                  45P     45
190,41,43,45,0,0;                                                     47P     46
508,4,0,27,5,1,0,0,27,1,1,0,0,27,6,0,0,0,27,7,1,0,0,0;                49P     47
510,47,1,1,49,0,0;                                                    51P     48
116,77.8892327271865,-49.4336320519756,75.,0,0,0;                     53P     49
123,0.908988236174038,0.416821768262182,-3.62527989531715D-32,0,      55P     50
0,0;                                                                  55P     51
123,-0.416821768262182,0.908988236174038,0.,0,0,0;                    57P     52
190,53,55,57,0,0;                                                     59P     53
508,4,0,27,6,1,0,0,27,4,1,0,0,27,8,0,0,0,27,9,1,0,0,0;                61P     54
510,59,1,1,61,0,0;                                                    63P     55
116,0.625232652393282,-84.8634823542611,150.,0,0,0;                   65P     56
123,9.25530248579292D-17,-2.01835933782765D-16,1.,0,0,0;              67P     57
123,0.416821768262183,-0.908988236174037,-2.22044604925031D-16,       69P     58
0,0,0;                                                                69P     59
190,65,67,69,0,0;                                                     71P     60
508,4,0,27,8,1,0,0,27,3,1,0,0,27,10,0,0,0,27,11,1,0,0,0;              73P     61
510,71,1,1,73,0,0;                                                    75P     62
116,0.625232652393275,-84.8634823542611,75.,0,0,0;                    77P     63
123,0.416821768262183,-0.908988236174037,-2.22044604925031D-16,       79P     64
0,0,0;                                                                79P     65
123,-9.25530248579291D-17,2.01835933782765D-16,-1.,0,0,0;             81P     66
190,77,79,81,0,0;                                                     83P     67
508,4,0,27,12,0,0,0,27,7,0,0,0,27,9,0,0,0,27,11,0,0,0,0;              85P     68
510,83,1,1,85,0,0;                                                    87P     69
116,-76.6387674223999,-120.293332656547,75.,0,0,0;                    89P     70
123,-0.908988236174038,-0.416821768262182,3.62527989531715D-32,       91P     71
0,0,0;                                                                91P     72
123,0.416821768262182,-0.908988236174038,0.,0,0,0;                    93P     73
190,89,91,93,0,0;                                                     95P     74
508,4,0,27,12,1,0,0,27,10,1,0,0,27,2,1,0,0,27,5,0,0,0,0;              97P     75
510,95,1,1,97,0,0;                                                    99P     76
514,6,39,1,51,1,63,1,75,1,87,1,99,1,0,0;                             101P     77
186,101,1,0;0,0;                                                     103P     78
S      3G      2D    104P     78                                        T      1
