                                                                        S      1
File generated by HOOPS Exchange Version 24.2.0                         S      2
                                                                        S      3
1H,,1H;,,10H2boxes.igs,14HHOOPS Exchange,6H24.2.0,32,24,8,56,15,,1.,2,2HG      1
MM,1000,1.,13H251210.084240,1D-05,1000000.,,,9,0,13H251210.084240;      G      2
     502       1       1       0   65535       0       0       000010001D      1
     502    1000       0       5       1                    Box2       0D      2
     110       6       1       0       0       0       0       000010000D      3
     110    1000       0       1       0                               0D      4
     110       7       1       0       0       0       0       000010000D      5
     110    1000       0       2       0                               0D      6
     110       9       1       0       0       0       0       000010000D      7
     110    1000       0       1       0                               0D      8
     110      10       1       0       0       0       0       000010000D      9
     110    1000       0       1       0                               0D     10
     110      11       1       0       0       0       0       000010000D     11
     110    1000       0       2       0                               0D     12
     110      13       1       0       0       0       0       000010000D     13
     110    1000       0       2       0                               0D     14
     110      15       1       0       0       0       0       000010000D     15
     110    1000       0       2       0                               0D     16
     110      17       1       0       0       0       0       000010000D     17
     110    1000       0       1       0                               0D     18
     110      18       1       0       0       0       0       000010000D     19
     110    1000       0       2       0                               0D     20
     110      20       1       0       0       0       0       000010000D     21
     110    1000       0       2       0                               0D     22
     110      22       1       0       0       0       0       000010000D     23
     110    1000       0       2       0                               0D     24
     110      24       1       0       0       0       0       000010000D     25
     110    1000       0       2       0                               0D     26
     504      26       1       0   65535       0       0       000010001D     27
     504    1000       0       3       1                    Box2       0D     28
     116      29       1       0       0       0       0       000010200D     29
     116    1000       0       1       0                               0D     30
     123      30       1       0       0       0       0       000010200D     31
     123    1000       0       1       0                               0D     32
     123      31       1       0       0       0       0       000010200D     33
     123    1000       0       1       0                               0D     34
     190      32       1       0       0       0       0       000010000D     35
     190    1000       0       1       1                               0D     36
     508      33       1       0       0       0       0       000010001D     37
     508    1000       0       1       1                               0D     38
     510      34       1       0   65535       0       0       000010001D     39
     510    1000       0       1       1                               0D     40
     116      35       1       0       0       0       0       000010200D     41
     116    1000       0       1       0                               0D     42
     123      36       1       0       0       0       0       000010200D     43
     123    1000       0       1       0                               0D     44
     123      37       1       0       0       0       0       000010200D     45
     123    1000       0       1       0                               0D     46
     190      38       1       0       0       0       0       000010000D     47
     190    1000       0       1       1                               0D     48
     508      39       1       0       0       0       0       000010001D     49
     508    1000       0       1       1                               0D     50
     510      40       1       0   65535       0       0       000010001D     51
     510    1000       0       1       1                               0D     52
     116      41       1       0       0       0       0       000010200D     53
     116    1000       0       1       0                               0D     54
     123      42       1       0       0       0       0       000010200D     55
     123    1000       0       1       0                               0D     56
     123      43       1       0       0       0       0       000010200D     57
     123    1000       0       1       0                               0D     58
     190      44       1       0       0       0       0       000010000D     59
     190    1000       0       1       1                               0D     60
     508      45       1       0       0       0       0       000010001D     61
     508    1000       0       1       1                               0D     62
     510      46       1       0   65535       0       0       000010001D     63
     510    1000       0       1       1                               0D     64
     116      47       1       0       0       0       0       000010200D     65
     116    1000       0       1       0                               0D     66
     123      48       1       0       0       0       0       000010200D     67
     123    1000       0       1       0                               0D     68
     123      49       1       0       0       0       0       000010200D     69
     123    1000       0       1       0                               0D     70
     190      50       1       0       0       0       0       000010000D     71
     190    1000       0       1       1                               0D     72
     508      51       1       0       0       0       0       000010001D     73
     508    1000       0       1       1                               0D     74
     510      52       1       0   65535       0       0       000010001D     75
     510    1000       0       1       1                               0D     76
     116      53       1       0       0       0       0       000010200D     77
     116    1000       0       1       0                               0D     78
     123      54       1       0       0       0       0       000010200D     79
     123    1000       0       1       0                               0D     80
     123      55       1       0       0       0       0       000010200D     81
     123    1000       0       1       0                               0D     82
     190      56       1       0       0       0       0       000010000D     83
     190    1000       0       1       1                               0D     84
     508      57       1       0       0       0       0       000010001D     85
     508    1000       0       1       1                               0D     86
     510      58       1       0   65535       0       0       000010001D     87
     510    1000       0       1       1                               0D     88
     116      59       1       0       0       0       0       000010200D     89
     116    1000       0       1       0                               0D     90
     123      60       1       0       0       0       0       000010200D     91
     123    1000       0       1       0                               0D     92
     123      61       1       0       0       0       0       000010200D     93
     123    1000       0       1       0                               0D     94
     190      62       1       0       0       0       0       000010000D     95
     190    1000       0       1       1                               0D     96
     508      63       1       0       0       0       0       000010001D     97
     508    1000       0       1       1                               0D     98
     510      64       1       0   65535       0       0       000010001D     99
     510    1000       0       1       1                               0D    100
     514      65       1       0       0       0       0       000010000D    101
     514    1000       0       1       1                               0D    102
     186      66       1       0   65535       0       0       000000001D    103
     186    1000       0       1       0                    Box2       0D    104
     502      67       1       0   65535       0       0       000010001D    105
     502    1000       0       7       1                    Box1       0D    106
     110      74       1       0       0       0       0       000010000D    107
     110    1000       0       2       0                               0D    108
     110      76       1       0       0       0       0       000010000D    109
     110    1000       0       2       0                               0D    110
     110      78       1       0       0       0       0       000010000D    111
     110    1000       0       2       0                               0D    112
     110      80       1       0       0       0       0       000010000D    113
     110    1000       0       2       0                               0D    114
     110      82       1       0       0       0       0       000010000D    115
     110    1000       0       2       0                               0D    116
     110      84       1       0       0       0       0       000010000D    117
     110    1000       0       2       0                               0D    118
     110      86       1       0       0       0       0       000010000D    119
     110    1000       0       2       0                               0D    120
     110      88       1       0       0       0       0       000010000D    121
     110    1000       0       2       0                               0D    122
     110      90       1       0       0       0       0       000010000D    123
     110    1000       0       2       0                               0D    124
     110      92       1       0       0       0       0       000010000D    125
     110    1000       0       2       0                               0D    126
     110      94       1       0       0       0       0       000010000D    127
     110    1000       0       2       0                               0D    128
     110      96       1       0       0       0       0       000010000D    129
     110    1000       0       2       0                               0D    130
     504      98       1       0   65535       0       0       000010001D    131
     504    1000       0       4       1                    Box1       0D    132
     116     102       1       0       0       0       0       000010200D    133
     116    1000       0       1       0                               0D    134
     123     103       1       0       0       0       0       000010200D    135
     123    1000       0       2       0                               0D    136
     123     105       1       0       0       0       0       000010200D    137
     123    1000       0       1       0                               0D    138
     190     106       1       0       0       0       0       000010000D    139
     190    1000       0       1       1                               0D    140
     508     107       1       0       0       0       0       000010001D    141
     508    1000       0       1       1                               0D    142
     510     108       1       0   65535       0       0       000010001D    143
     510    1000       0       1       1                               0D    144
     116     109       1       0       0       0       0       000010200D    145
     116    1000       0       1       0                               0D    146
     123     110       1       0       0       0       0       000010200D    147
     123    1000       0       1       0                               0D    148
     123     111       1       0       0       0       0       000010200D    149
     123    1000       0       2       0                               0D    150
     190     113       1       0       0       0       0       000010000D    151
     190    1000       0       1       1                               0D    152
     508     114       1       0       0       0       0       000010001D    153
     508    1000       0       1       1                               0D    154
     510     115       1       0   65535       0       0       000010001D    155
     510    1000       0       1       1                               0D    156
     116     116       1       0       0       0       0       000010200D    157
     116    1000       0       1       0                               0D    158
     123     117       1       0       0       0       0       000010200D    159
     123    1000       0       2       0                               0D    160
     123     119       1       0       0       0       0       000010200D    161
     123    1000       0       1       0                               0D    162
     190     120       1       0       0       0       0       000010000D    163
     190    1000       0       1       1                               0D    164
     508     121       1       0       0       0       0       000010001D    165
     508    1000       0       1       1                               0D    166
     510     122       1       0   65535       0       0       000010001D    167
     510    1000       0       1       1                               0D    168
     116     123       1       0       0       0       0       000010200D    169
     116    1000       0       1       0                               0D    170
     123     124       1       0       0       0       0       000010200D    171
     123    1000       0       1       0                               0D    172
     123     125       1       0       0       0       0       000010200D    173
     123    1000       0       2       0                               0D    174
     190     127       1       0       0       0       0       000010000D    175
     190    1000       0       1       1                               0D    176
     508     128       1       0       0       0       0       000010001D    177
     508    1000       0       1       1                               0D    178
     510     129       1       0   65535       0       0       000010001D    179
     510    1000       0       1       1                               0D    180
     116     130       1       0       0       0       0       000010200D    181
     116    1000       0       1       0                               0D    182
     123     131       1       0       0       0       0       000010200D    183
     123    1000       0       2       0                               0D    184
     123     133       1       0       0       0       0       000010200D    185
     123    1000       0       1       0                               0D    186
     190     134       1       0       0       0       0       000010000D    187
     190    1000       0       1       1                               0D    188
     508     135       1       0       0       0       0       000010001D    189
     508    1000       0       1       1                               0D    190
     510     136       1       0   65535       0       0       000010001D    191
     510    1000       0       1       1                               0D    192
     116     137       1       0       0       0       0       000010200D    193
     116    1000       0       1       0                               0D    194
     123     138       1       0       0       0       0       000010200D    195
     123    1000       0       2       0                               0D    196
     123     140       1       0       0       0       0       000010200D    197
     123    1000       0       1       0                               0D    198
     190     141       1       0       0       0       0       000010000D    199
     190    1000       0       1       1                               0D    200
     508     142       1       0       0       0       0       000010001D    201
     508    1000       0       1       1                               0D    202
     510     143       1       0   65535       0       0       000010001D    203
     510    1000       0       1       1                               0D    204
     514     144       1       0       0       0       0       000010000D    205
     514    1000       0       1       1                               0D    206
     186     145       1       0   65535       0       0       000000001D    207
     186    1000       0       1       0                    Box1       0D    208
502,8,-85.,28.2154714348553,3.00000000000004,85.,                      1P      1
28.2154714348553,3.,-85.,-82.,3.00000000000004,85.,-82.,3.,-85.,       1P      2
28.2154714348553,3.64153152077051D-14,85.,28.2154714348553,            1P      3
6.66133814775095D-16,85.,-82.,6.66133814775095D-16,-85.,-82.,          1P      4
3.64153152077051D-14,0,0;                                              1P      5
110,-85.,28.2154714348553,3.,85.,28.2154714348553,3.,0,0;              3P      6
110,-85.,-82.,3.00000000000004,-85.,28.2154714348552,                  5P      7
3.00000000000004,0,0;                                                  5P      8
110,85.,-82.,3.,-85.,-82.,3.,0,0;                                      7P      9
110,85.,28.2154714348552,3.,85.,-82.,3.,0,0;                           9P     10
110,-85.,28.2154714348553,3.64153152077051D-14,-85.,                  11P     11
28.2154714348553,3.00000000000004,0,0;                                11P     12
110,85.,28.2154714348553,6.66133814775096D-16,85.,                    13P     13
28.2154714348553,3.,0,0;                                              13P     14
110,85.,28.2154714348553,1.85407245112401D-14,-85.,                   15P     15
28.2154714348553,1.85407245112401D-14,0,0;                            15P     16
110,85.,-82.,6.66133814775096D-16,85.,-82.,3.,0,0;                    17P     17
110,85.,-82.,6.66133814775095D-16,85.,28.2154714348552,               19P     18
6.66133814775095D-16,0,0;                                             19P     19
110,-85.,-82.,3.64153152077051D-14,-85.,-82.,3.00000000000004,0,      21P     20
0;                                                                    21P     21
110,-85.,-82.,1.85407245112401D-14,85.,-82.,                          23P     22
1.85407245112401D-14,0,0;                                             23P     23
110,-85.,28.2154714348552,3.64153152077051D-14,-85.,-82.,             25P     24
3.64153152077051D-14,0,0;                                             25P     25
504,12,3,1,1,1,2,5,1,3,1,1,7,1,4,1,3,9,1,2,1,4,11,1,5,1,1,13,1,       27P     26
6,1,2,15,1,6,1,5,17,1,7,1,4,19,1,7,1,6,21,1,8,1,3,23,1,8,1,7,25,      27P     27
1,5,1,8,0,0;                                                          27P     28
116,0.,1.5,3.,0,0,0;                                                  29P     29
123,0.,0.,1.,0,0,0;                                                   31P     30
123,1.,0.,-0.,0,0,0;                                                  33P     31
190,29,31,33,0,0;                                                     35P     32
508,4,0,27,1,0,0,0,27,2,0,0,0,27,3,0,0,0,27,4,0,0,0,0;                37P     33
510,35,1,1,37,0,0;                                                    39P     34
116,0.,28.2154714348553,1.85407245112401D-14,0,0,0;                   41P     35
123,0.,1.,0.,0,0,0;                                                   43P     36
123,0.,-0.,1.,0,0,0;                                                  45P     37
190,41,43,45,0,0;                                                     47P     38
508,4,0,27,5,1,0,0,27,1,1,0,0,27,6,0,0,0,27,7,1,0,0,0;                49P     39
510,47,1,1,49,0,0;                                                    51P     40
116,85.,1.5,6.66133814775095D-16,0,0,0;                               53P     41
123,1.,0.,-2.10289302311353D-16,0,0,0;                                55P     42
123,-2.10289302311353D-16,0.,-1.,0,0,0;                               57P     43
190,53,55,57,0,0;                                                     59P     44
508,4,0,27,6,1,0,0,27,4,1,0,0,27,8,0,0,0,27,9,1,0,0,0;                61P     45
510,59,1,1,61,0,0;                                                    63P     46
116,0.,-82.,1.85407245112401D-14,0,0,0;                               65P     47
123,0.,-1.,0.,0,0,0;                                                  67P     48
123,0.,0.,-1.,0,0,0;                                                  69P     49
190,65,67,69,0,0;                                                     71P     50
508,4,0,27,8,1,0,0,27,3,1,0,0,27,10,0,0,0,27,11,1,0,0,0;              73P     51
510,71,1,1,73,0,0;                                                    75P     52
116,0.,1.5,1.85407245112401D-14,0,0,0;                                77P     53
123,0.,0.,-1.,0,0,0;                                                  79P     54
123,-1.,0.,0.,0,0,0;                                                  81P     55
190,77,79,81,0,0;                                                     83P     56
508,4,0,27,12,0,0,0,27,7,0,0,0,27,9,0,0,0,27,11,0,0,0,0;              85P     57
510,83,1,1,85,0,0;                                                    87P     58
116,-85.,1.5,3.64153152077051D-14,0,0,0;                              89P     59
123,-1.,0.,2.10289302311353D-16,0,0,0;                                91P     60
123,2.10289302311353D-16,0.,1.,0,0,0;                                 93P     61
190,89,91,93,0,0;                                                     95P     62
508,4,0,27,12,1,0,0,27,10,1,0,0,27,2,1,0,0,27,5,0,0,0,0;              97P     63
510,95,1,1,97,0,0;                                                    99P     64
514,6,39,1,51,1,63,1,75,1,87,1,99,1,0,0;                             101P     65
186,101,1,0;0,0;                                                     103P     66
502,8,-77.8892327271865,-117.566367948024,6.66133814775094D-16,      105P     67
76.6387674223999,-46.7066673434535,6.66133814775094D-16,             105P     68
-77.8892327271865,-117.566367948024,150.,76.6387674223999,           105P     69
-46.7066673434535,150.,-76.6387674223999,-120.293332656547,0.,       105P     70
77.8892327271865,-49.4336320519756,0.,77.8892327271865,              105P     71
-49.4336320519756,150.,-76.6387674223999,-120.293332656547,150.,     105P     72
0,0;                                                                 105P     73
110,-77.8892327271865,-117.566367948024,3.08148791101958D-30,        107P     74
76.6387674223999,-46.7066673434534,-3.08148791101958D-30,0,0;        107P     75
110,-77.8892327271865,-117.566367948024,150.,-77.8892327271865,      109P     76
-117.566367948024,0.,0,0;                                            109P     77
110,76.6387674223999,-46.7066673434535,150.,-77.8892327271865,       111P     78
-117.566367948024,150.,0,0;                                          111P     79
110,76.6387674223999,-46.7066673434535,1.4210854715202D-14,          113P     80
76.6387674223999,-46.7066673434535,150.,0,0;                         113P     81
110,-76.6387674223999,-120.293332656547,0.,-77.8892327271865,        115P     82
-117.566367948024,6.66133814775112D-16,0,0;                          115P     83
110,77.8892327271865,-49.4336320519756,-1.54074395550979D-30,        117P     84
76.6387674224,-46.7066673434535,6.66133814775092D-16,0,0;            117P     85
110,77.8892327271865,-49.4336320519756,-3.08148791101958D-30,        119P     86
-76.6387674223999,-120.293332656547,3.08148791101958D-30,0,0;        119P     87
110,77.8892327271865,-49.4336320519756,150.,76.6387674224,           121P     88
-46.7066673434535,150.,0,0;                                          121P     89
110,77.8892327271865,-49.4336320519756,150.,77.8892327271865,        123P     90
-49.4336320519756,1.4210854715202D-14,0,0;                           123P     91
110,-76.6387674223999,-120.293332656547,150.,-77.8892327271865,      125P     92
-117.566367948024,150.,0,0;                                          125P     93
110,-76.6387674223999,-120.293332656547,150.,77.8892327271865,       127P     94
-49.4336320519756,150.,0,0;                                          127P     95
110,-76.6387674223999,-120.293332656547,0.,-76.6387674223999,        129P     96
-120.293332656547,150.,0,0;                                          129P     97
504,12,107,105,1,105,2,109,105,3,105,1,111,105,4,105,3,113,105,      131P     98
2,105,4,115,105,5,105,1,117,105,6,105,2,119,105,6,105,5,121,105,     131P     99
7,105,4,123,105,7,105,6,125,105,8,105,3,127,105,8,105,7,129,105,     131P    100
5,105,8,0,0;                                                         131P    101
116,-0.625232652393275,-82.136517645739,75.,0,0,0;                   133P    102
123,-0.416821768262183,0.908988236174037,2.22044604925031D-16,0,     135P    103
0,0;                                                                 135P    104
123,9.25530248579291D-17,-2.01835933782765D-16,1.,0,0,0;             137P    105
190,133,135,137,0,0;                                                 139P    106
508,4,0,131,1,0,0,0,131,2,0,0,0,131,3,0,0,0,131,4,0,0,0,0;           141P    107
510,139,1,1,141,0,0;                                                 143P    108
116,0.625232652393268,-84.8634823542611,0.,0,0,0;                    145P    109
123,-9.25530248579292D-17,2.01835933782765D-16,-1.,0,0,0;            147P    110
123,-0.416821768262183,0.908988236174037,2.22044604925031D-16,0,     149P    111
0,0;                                                                 149P    112
190,145,147,149,0,0;                                                 151P    113
508,4,0,131,5,1,0,0,131,1,1,0,0,131,6,0,0,0,131,7,1,0,0,0;           153P    114
510,151,1,1,153,0,0;                                                 155P    115
116,77.8892327271865,-49.4336320519756,75.,0,0,0;                    157P    116
123,0.908988236174038,0.416821768262182,-3.62527989531715D-32,0,     159P    117
0,0;                                                                 159P    118
123,-0.416821768262182,0.908988236174038,0.,0,0,0;                   161P    119
190,157,159,161,0,0;                                                 163P    120
508,4,0,131,6,1,0,0,131,4,1,0,0,131,8,0,0,0,131,9,1,0,0,0;           165P    121
510,163,1,1,165,0,0;                                                 167P    122
116,0.625232652393282,-84.8634823542611,150.,0,0,0;                  169P    123
123,9.25530248579292D-17,-2.01835933782765D-16,1.,0,0,0;             171P    124
123,0.416821768262183,-0.908988236174037,-2.22044604925031D-16,      173P    125
0,0,0;                                                               173P    126
190,169,171,173,0,0;                                                 175P    127
508,4,0,131,8,1,0,0,131,3,1,0,0,131,10,0,0,0,131,11,1,0,0,0;         177P    128
510,175,1,1,177,0,0;                                                 179P    129
116,0.625232652393275,-84.8634823542611,75.,0,0,0;                   181P    130
123,0.416821768262183,-0.908988236174037,-2.22044604925031D-16,      183P    131
0,0,0;                                                               183P    132
123,-9.25530248579291D-17,2.01835933782765D-16,-1.,0,0,0;            185P    133
190,181,183,185,0,0;                                                 187P    134
508,4,0,131,12,0,0,0,131,7,0,0,0,131,9,0,0,0,131,11,0,0,0,0;         189P    135
510,187,1,1,189,0,0;                                                 191P    136
116,-76.6387674223999,-120.293332656547,75.,0,0,0;                   193P    137
123,-0.908988236174038,-0.416821768262182,3.62527989531715D-32,      195P    138
0,0,0;                                                               195P    139
123,0.416821768262182,-0.908988236174038,0.,0,0,0;                   197P    140
190,193,195,197,0,0;                                                 199P    141
508,4,0,131,12,1,0,0,131,10,1,0,0,131,2,1,0,0,131,5,0,0,0,0;         201P    142
510,199,1,1,201,0,0;                                                 203P    143
514,6,143,1,155,1,167,1,179,1,191,1,203,1,0,0;                       205P    144
186,205,1,0;0,0;                                                     207P    145
S      3G      2D    208P    145                                        T      1
