                                                                        S      1
File generated by HOOPS Exchange Version 24.2.0                         S      2
                                                                        S      3
1H,,1H;,,14H3 big boxs.igs,14HHOOPS Exchange,6H24.2.0,32,24,8,56,15,,1.,G      1
2,2HMM,1000,1.,13H251209.185210,1D-05,1000000.,,,9,0,13H251209.185210;  G      2
     502       1       1       0   65535       0       0       000010001D      1
     502    1000       0       7       1                JASONBOX       0D      2
     110       8       1       0       0       0       0       000010000D      3
     110    1000       0       2       0                               0D      4
     110      10       1       0       0       0       0       000010000D      5
     110    1000       0       2       0                               0D      6
     110      12       1       0       0       0       0       000010000D      7
     110    1000       0       2       0                               0D      8
     110      14       1       0       0       0       0       000010000D      9
     110    1000       0       2       0                               0D     10
     110      16       1       0       0       0       0       000010000D     11
     110    1000       0       2       0                               0D     12
     110      18       1       0       0       0       0       000010000D     13
     110    1000       0       2       0                               0D     14
     110      20       1       0       0       0       0       000010000D     15
     110    1000       0       2       0                               0D     16
     110      22       1       0       0       0       0       000010000D     17
     110    1000       0       2       0                               0D     18
     110      24       1       0       0       0       0       000010000D     19
     110    1000       0       2       0                               0D     20
     110      26       1       0       0       0       0       000010000D     21
     110    1000       0       2       0                               0D     22
     110      28       1       0       0       0       0       000010000D     23
     110    1000       0       2       0                               0D     24
     110      30       1       0       0       0       0       000010000D     25
     110    1000       0       2       0                               0D     26
     504      32       1       0   65535       0       0       000010001D     27
     504    1000       0       3       1                JASONBOX       0D     28
     116      35       1       0       0       0       0       000010200D     29
     116    1000       0       1       0                               0D     30
     123      36       1       0       0       0       0       000010200D     31
     123    1000       0       2       0                               0D     32
     123      38       1       0       0       0       0       000010200D     33
     123    1000       0       1       0                               0D     34
     190      39       1       0       0       0       0       000010000D     35
     190    1000       0       1       1                               0D     36
     508      40       1       0       0       0       0       000010001D     37
     508    1000       0       1       1                               0D     38
     510      41       1       0   65535       0       0       000010001D     39
     510    1000       0       1       1                               0D     40
     116      42       1       0       0       0       0       000010200D     41
     116    1000       0       1       0                               0D     42
     123      43       1       0       0       0       0       000010200D     43
     123    1000       0       1       0                               0D     44
     123      44       1       0       0       0       0       000010200D     45
     123    1000       0       2       0                               0D     46
     190      46       1       0       0       0       0       000010000D     47
     190    1000       0       1       1                               0D     48
     508      47       1       0       0       0       0       000010001D     49
     508    1000       0       1       1                               0D     50
     510      48       1       0   65535       0       0       000010001D     51
     510    1000       0       1       1                               0D     52
     116      49       1       0       0       0       0       000010200D     53
     116    1000       0       1       0                               0D     54
     123      50       1       0       0       0       0       000010200D     55
     123    1000       0       2       0                               0D     56
     123      52       1       0       0       0       0       000010200D     57
     123    1000       0       1       0                               0D     58
     190      53       1       0       0       0       0       000010000D     59
     190    1000       0       1       1                               0D     60
     508      54       1       0       0       0       0       000010001D     61
     508    1000       0       1       1                               0D     62
     510      55       1       0   65535       0       0       000010001D     63
     510    1000       0       1       1                               0D     64
     116      56       1       0       0       0       0       000010200D     65
     116    1000       0       1       0                               0D     66
     123      57       1       0       0       0       0       000010200D     67
     123    1000       0       1       0                               0D     68
     123      58       1       0       0       0       0       000010200D     69
     123    1000       0       2       0                               0D     70
     190      60       1       0       0       0       0       000010000D     71
     190    1000       0       1       1                               0D     72
     508      61       1       0       0       0       0       000010001D     73
     508    1000       0       1       1                               0D     74
     510      62       1       0   65535       0       0       000010001D     75
     510    1000       0       1       1                               0D     76
     116      63       1       0       0       0       0       000010200D     77
     116    1000       0       1       0                               0D     78
     123      64       1       0       0       0       0       000010200D     79
     123    1000       0       2       0                               0D     80
     123      66       1       0       0       0       0       000010200D     81
     123    1000       0       1       0                               0D     82
     190      67       1       0       0       0       0       000010000D     83
     190    1000       0       1       1                               0D     84
     508      68       1       0       0       0       0       000010001D     85
     508    1000       0       1       1                               0D     86
     510      69       1       0   65535       0       0       000010001D     87
     510    1000       0       1       1                               0D     88
     116      70       1       0       0       0       0       000010200D     89
     116    1000       0       1       0                               0D     90
     123      71       1       0       0       0       0       000010200D     91
     123    1000       0       2       0                               0D     92
     123      73       1       0       0       0       0       000010200D     93
     123    1000       0       1       0                               0D     94
     190      74       1       0       0       0       0       000010000D     95
     190    1000       0       1       1                               0D     96
     508      75       1       0       0       0       0       000010001D     97
     508    1000       0       1       1                               0D     98
     510      76       1       0   65535       0       0       000010001D     99
     510    1000       0       1       1                               0D    100
     514      77       1       0       0       0       0       000010000D    101
     514    1000       0       1       1                               0D    102
     186      78       1       0   65535       0       0       000000001D    103
     186    1000       0       1       0                JASONBOX       0D    104
     314      79       1       0       0       0       0       000020000D    105
     314    1000       0       2       0                               0D    106
     502      81       1       1   65535       0       0       000010001D    107
     502     100       0       2       1                 Box.001       0D    108
     110      83       1       0       0       0       0       000010000D    109
     110    1000       0       1       0                               0D    110
     110      84       1       0       0       0       0       000010000D    111
     110    1000       0       1       0                               0D    112
     110      85       1       0       0       0       0       000010000D    113
     110    1000       0       1       0                               0D    114
     110      86       1       0       0       0       0       000010000D    115
     110    1000       0       1       0                               0D    116
     110      87       1       0       0       0       0       000010000D    117
     110    1000       0       1       0                               0D    118
     110      88       1       0       0       0       0       000010000D    119
     110    1000       0       1       0                               0D    120
     110      89       1       0       0       0       0       000010000D    121
     110    1000       0       1       0                               0D    122
     110      90       1       0       0       0       0       000010000D    123
     110    1000       0       1       0                               0D    124
     110      91       1       0       0       0       0       000010000D    125
     110    1000       0       1       0                               0D    126
     110      92       1       0       0       0       0       000010000D    127
     110    1000       0       1       0                               0D    128
     110      93       1       0       0       0       0       000010000D    129
     110    1000       0       1       0                               0D    130
     110      94       1       0       0       0       0       000010000D    131
     110    1000       0       1       0                               0D    132
     504      95       1       1   65535       0       0       000010001D    133
     504     100       0       4       1                 Box.001       0D    134
     116      99       1       0       0       0       0       000010200D    135
     116    1000       0       1       0                               0D    136
     123     100       1       0       0       0       0       000010200D    137
     123    1000       0       1       0                               0D    138
     123     101       1       0       0       0       0       000010200D    139
     123    1000       0       1       0                               0D    140
     190     102       1       0       0       0       0       000010000D    141
     190    1000       0       1       1                               0D    142
     508     103       1       0       0       0       0       000010001D    143
     508    1000       0       1       1                               0D    144
     510     104       1       0   65535       0       0       000010001D    145
     510    1000       0       1       1                               0D    146
     116     105       1       0       0       0       0       000010200D    147
     116    1000       0       1       0                               0D    148
     123     106       1       0       0       0       0       000010200D    149
     123    1000       0       1       0                               0D    150
     123     107       1       0       0       0       0       000010200D    151
     123    1000       0       1       0                               0D    152
     190     108       1       0       0       0       0       000010000D    153
     190    1000       0       1       1                               0D    154
     508     109       1       0       0       0       0       000010001D    155
     508    1000       0       1       1                               0D    156
     510     110       1       0   65535       0       0       000010001D    157
     510    1000       0       1       1                               0D    158
     116     111       1       0       0       0       0       000010200D    159
     116    1000       0       1       0                               0D    160
     123     112       1       0       0       0       0       000010200D    161
     123    1000       0       1       0                               0D    162
     123     113       1       0       0       0       0       000010200D    163
     123    1000       0       1       0                               0D    164
     190     114       1       0       0       0       0       000010000D    165
     190    1000       0       1       1                               0D    166
     508     115       1       0       0       0       0       000010001D    167
     508    1000       0       1       1                               0D    168
     510     116       1       0   65535       0       0       000010001D    169
     510    1000       0       1       1                               0D    170
     116     117       1       0       0       0       0       000010200D    171
     116    1000       0       1       0                               0D    172
     123     118       1       0       0       0       0       000010200D    173
     123    1000       0       1       0                               0D    174
     123     119       1       0       0       0       0       000010200D    175
     123    1000       0       1       0                               0D    176
     190     120       1       0       0       0       0       000010000D    177
     190    1000       0       1       1                               0D    178
     508     121       1       0       0       0       0       000010001D    179
     508    1000       0       1       1                               0D    180
     510     122       1       0   65535       0       0       000010001D    181
     510    1000       0       1       1                               0D    182
     116     123       1       0       0       0       0       000010200D    183
     116    1000       0       1       0                               0D    184
     123     124       1       0       0       0       0       000010200D    185
     123    1000       0       1       0                               0D    186
     123     125       1       0       0       0       0       000010200D    187
     123    1000       0       1       0                               0D    188
     190     126       1       0       0       0       0       000010000D    189
     190    1000       0       1       1                               0D    190
     508     127       1       0       0       0       0       000010001D    191
     508    1000       0       1       1                               0D    192
     510     128       1       0   65535       0       0       000010001D    193
     510    1000       0       1       1                               0D    194
     116     129       1       0       0       0       0       000010200D    195
     116    1000       0       1       0                               0D    196
     123     130       1       0       0       0       0       000010200D    197
     123    1000       0       1       0                               0D    198
     123     131       1       0       0       0       0       000010200D    199
     123    1000       0       1       0                               0D    200
     190     132       1       0       0       0       0       000010000D    201
     190    1000       0       1       1                               0D    202
     508     133       1       0       0       0       0       000010001D    203
     508    1000       0       1       1                               0D    204
     510     134       1       0   65535       0       0       000010001D    205
     510    1000       0       1       1                               0D    206
     514     135       1       0       0       0       0       000010000D    207
     514    1000       0       1       1                               0D    208
     186     136       1       1   65535       0       0       000000001D    209
     186     100    -105       1       0                 Box.001       0D    210
     502     137       1       0   65535       0       0       000010001D    211
     502    1000       0       5       1                 FlatBox       0D    212
     110     142       1       0       0       0       0       000010000D    213
     110    1000       0       1       0                               0D    214
     110     143       1       0       0       0       0       000010000D    215
     110    1000       0       2       0                               0D    216
     110     145       1       0       0       0       0       000010000D    217
     110    1000       0       1       0                               0D    218
     110     146       1       0       0       0       0       000010000D    219
     110    1000       0       1       0                               0D    220
     110     147       1       0       0       0       0       000010000D    221
     110    1000       0       2       0                               0D    222
     110     149       1       0       0       0       0       000010000D    223
     110    1000       0       2       0                               0D    224
     110     151       1       0       0       0       0       000010000D    225
     110    1000       0       2       0                               0D    226
     110     153       1       0       0       0       0       000010000D    227
     110    1000       0       1       0                               0D    228
     110     154       1       0       0       0       0       000010000D    229
     110    1000       0       2       0                               0D    230
     110     156       1       0       0       0       0       000010000D    231
     110    1000       0       2       0                               0D    232
     110     158       1       0       0       0       0       000010000D    233
     110    1000       0       2       0                               0D    234
     110     160       1       0       0       0       0       000010000D    235
     110    1000       0       2       0                               0D    236
     504     162       1       0   65535       0       0       000010001D    237
     504    1000       0       4       1                 FlatBox       0D    238
     116     166       1       0       0       0       0       000010200D    239
     116    1000       0       1       0                               0D    240
     123     167       1       0       0       0       0       000010200D    241
     123    1000       0       1       0                               0D    242
     123     168       1       0       0       0       0       000010200D    243
     123    1000       0       1       0                               0D    244
     190     169       1       0       0       0       0       000010000D    245
     190    1000       0       1       1                               0D    246
     508     170       1       0       0       0       0       000010001D    247
     508    1000       0       1       1                               0D    248
     510     171       1       0   65535       0       0       000010001D    249
     510    1000       0       1       1                               0D    250
     116     172       1       0       0       0       0       000010200D    251
     116    1000       0       1       0                               0D    252
     123     173       1       0       0       0       0       000010200D    253
     123    1000       0       1       0                               0D    254
     123     174       1       0       0       0       0       000010200D    255
     123    1000       0       1       0                               0D    256
     190     175       1       0       0       0       0       000010000D    257
     190    1000       0       1       1                               0D    258
     508     176       1       0       0       0       0       000010001D    259
     508    1000       0       1       1                               0D    260
     510     177       1       0   65535       0       0       000010001D    261
     510    1000       0       1       1                               0D    262
     116     178       1       0       0       0       0       000010200D    263
     116    1000       0       1       0                               0D    264
     123     179       1       0       0       0       0       000010200D    265
     123    1000       0       1       0                               0D    266
     123     180       1       0       0       0       0       000010200D    267
     123    1000       0       1       0                               0D    268
     190     181       1       0       0       0       0       000010000D    269
     190    1000       0       1       1                               0D    270
     508     182       1       0       0       0       0       000010001D    271
     508    1000       0       1       1                               0D    272
     510     183       1       0   65535       0       0       000010001D    273
     510    1000       0       1       1                               0D    274
     116     184       1       0       0       0       0       000010200D    275
     116    1000       0       1       0                               0D    276
     123     185       1       0       0       0       0       000010200D    277
     123    1000       0       1       0                               0D    278
     123     186       1       0       0       0       0       000010200D    279
     123    1000       0       1       0                               0D    280
     190     187       1       0       0       0       0       000010000D    281
     190    1000       0       1       1                               0D    282
     508     188       1       0       0       0       0       000010001D    283
     508    1000       0       1       1                               0D    284
     510     189       1       0   65535       0       0       000010001D    285
     510    1000       0       1       1                               0D    286
     116     190       1       0       0       0       0       000010200D    287
     116    1000       0       1       0                               0D    288
     123     191       1       0       0       0       0       000010200D    289
     123    1000       0       1       0                               0D    290
     123     192       1       0       0       0       0       000010200D    291
     123    1000       0       1       0                               0D    292
     190     193       1       0       0       0       0       000010000D    293
     190    1000       0       1       1                               0D    294
     508     194       1       0       0       0       0       000010001D    295
     508    1000       0       1       1                               0D    296
     510     195       1       0   65535       0       0       000010001D    297
     510    1000       0       1       1                               0D    298
     116     196       1       0       0       0       0       000010200D    299
     116    1000       0       1       0                               0D    300
     123     197       1       0       0       0       0       000010200D    301
     123    1000       0       1       0                               0D    302
     123     198       1       0       0       0       0       000010200D    303
     123    1000       0       1       0                               0D    304
     190     199       1       0       0       0       0       000010000D    305
     190    1000       0       1       1                               0D    306
     508     200       1       0       0       0       0       000010001D    307
     508    1000       0       1       1                               0D    308
     510     201       1       0   65535       0       0       000010001D    309
     510    1000       0       1       1                               0D    310
     514     202       1       0       0       0       0       000010000D    311
     514    1000       0       1       1                               0D    312
     186     203       1       0   65535       0       0       000000001D    313
     186    1000       0       1       0                 FlatBox       0D    314
502,8,-77.8892327271865,-117.566367948024,6.66133814775094D-16,        1P      1
76.6387674223999,-46.7066673434535,6.66133814775094D-16,               1P      2
-77.8892327271865,-117.566367948024,150.,76.6387674223999,             1P      3
-46.7066673434535,150.,-76.6387674223999,-120.293332656547,0.,         1P      4
77.8892327271865,-49.4336320519756,0.,77.8892327271865,                1P      5
-49.4336320519756,150.,-76.6387674223999,-120.293332656547,150.,       1P      6
0,0;                                                                   1P      7
110,-77.8892327271865,-117.566367948024,3.08148791101958D-30,          3P      8
76.6387674223999,-46.7066673434534,-3.08148791101958D-30,0,0;          3P      9
110,-77.8892327271865,-117.566367948024,150.,-77.8892327271865,        5P     10
-117.566367948024,0.,0,0;                                              5P     11
110,76.6387674223999,-46.7066673434535,150.,-77.8892327271865,         7P     12
-117.566367948024,150.,0,0;                                            7P     13
110,76.6387674223999,-46.7066673434535,1.4210854715202D-14,            9P     14
76.6387674223999,-46.7066673434535,150.,0,0;                           9P     15
110,-76.6387674223999,-120.293332656547,0.,-77.8892327271865,         11P     16
-117.566367948024,6.66133814775112D-16,0,0;                           11P     17
110,77.8892327271865,-49.4336320519756,-1.54074395550979D-30,         13P     18
76.6387674224,-46.7066673434535,6.66133814775092D-16,0,0;             13P     19
110,77.8892327271865,-49.4336320519756,-3.08148791101958D-30,         15P     20
-76.6387674223999,-120.293332656547,3.08148791101958D-30,0,0;         15P     21
110,77.8892327271865,-49.4336320519756,150.,76.6387674224,            17P     22
-46.7066673434535,150.,0,0;                                           17P     23
110,77.8892327271865,-49.4336320519756,150.,77.8892327271865,         19P     24
-49.4336320519756,1.4210854715202D-14,0,0;                            19P     25
110,-76.6387674223999,-120.293332656547,150.,-77.8892327271865,       21P     26
-117.566367948024,150.,0,0;                                           21P     27
110,-76.6387674223999,-120.293332656547,150.,77.8892327271865,        23P     28
-49.4336320519756,150.,0,0;                                           23P     29
110,-76.6387674223999,-120.293332656547,0.,-76.6387674223999,         25P     30
-120.293332656547,150.,0,0;                                           25P     31
504,12,3,1,1,1,2,5,1,3,1,1,7,1,4,1,3,9,1,2,1,4,11,1,5,1,1,13,1,       27P     32
6,1,2,15,1,6,1,5,17,1,7,1,4,19,1,7,1,6,21,1,8,1,3,23,1,8,1,7,25,      27P     33
1,5,1,8,0,0;                                                          27P     34
116,-0.625232652393275,-82.136517645739,75.,0,0,0;                    29P     35
123,-0.416821768262183,0.908988236174037,2.22044604925031D-16,0,      31P     36
0,0;                                                                  31P     37
123,9.25530248579291D-17,-2.01835933782765D-16,1.,0,0,0;              33P     38
190,29,31,33,0,0;                                                     35P     39
508,4,0,27,1,0,0,0,27,2,0,0,0,27,3,0,0,0,27,4,0,0,0,0;                37P     40
510,35,1,1,37,0,0;                                                    39P     41
116,0.625232652393268,-84.8634823542611,0.,0,0,0;                     41P     42
123,-9.25530248579292D-17,2.01835933782765D-16,-1.,0,0,0;             43P     43
123,-0.416821768262183,0.908988236174037,2.22044604925031D-16,0,      45P     44
0,0;                                                                  45P     45
190,41,43,45,0,0;                                                     47P     46
508,4,0,27,5,1,0,0,27,1,1,0,0,27,6,0,0,0,27,7,1,0,0,0;                49P     47
510,47,1,1,49,0,0;                                                    51P     48
116,77.8892327271865,-49.4336320519756,75.,0,0,0;                     53P     49
123,0.908988236174038,0.416821768262182,-3.62527989531715D-32,0,      55P     50
0,0;                                                                  55P     51
123,-0.416821768262182,0.908988236174038,0.,0,0,0;                    57P     52
190,53,55,57,0,0;                                                     59P     53
508,4,0,27,6,1,0,0,27,4,1,0,0,27,8,0,0,0,27,9,1,0,0,0;                61P     54
510,59,1,1,61,0,0;                                                    63P     55
116,0.625232652393282,-84.8634823542611,150.,0,0,0;                   65P     56
123,9.25530248579292D-17,-2.01835933782765D-16,1.,0,0,0;              67P     57
123,0.416821768262183,-0.908988236174037,-2.22044604925031D-16,       69P     58
0,0,0;                                                                69P     59
190,65,67,69,0,0;                                                     71P     60
508,4,0,27,8,1,0,0,27,3,1,0,0,27,10,0,0,0,27,11,1,0,0,0;              73P     61
510,71,1,1,73,0,0;                                                    75P     62
116,0.625232652393275,-84.8634823542611,75.,0,0,0;                    77P     63
123,0.416821768262183,-0.908988236174037,-2.22044604925031D-16,       79P     64
0,0,0;                                                                79P     65
123,-9.25530248579291D-17,2.01835933782765D-16,-1.,0,0,0;             81P     66
190,77,79,81,0,0;                                                     83P     67
508,4,0,27,12,0,0,0,27,7,0,0,0,27,9,0,0,0,27,11,0,0,0,0;              85P     68
510,83,1,1,85,0,0;                                                    87P     69
116,-76.6387674223999,-120.293332656547,75.,0,0,0;                    89P     70
123,-0.908988236174038,-0.416821768262182,3.62527989531715D-32,       91P     71
0,0,0;                                                                91P     72
123,0.416821768262182,-0.908988236174038,0.,0,0,0;                    93P     73
190,89,91,93,0,0;                                                     95P     74
508,4,0,27,12,1,0,0,27,10,1,0,0,27,2,1,0,0,27,5,0,0,0,0;              97P     75
510,95,1,1,97,0,0;                                                    99P     76
514,6,39,1,51,1,63,1,75,1,87,1,99,1,0,0;                             101P     77
186,101,1,0;0,0;                                                     103P     78
314,72.156867980957,23.9215679168701,23.9215679168701,5HCOLOR,0,     105P     79
0;                                                                   105P     80
502,8,-85.,-82.,150.,-85.,85.,150.,85.,-82.,150.,85.,85.,150.,       107P     81
-85.,85.,0.,-85.,-82.,0.,85.,-82.,0.,85.,85.,0.,0,0;                 107P     82
110,-85.,-82.,150.,-85.,85.,150.,0,0;                                109P     83
110,-85.,-82.,150.,85.,-82.,150.,0,0;                                111P     84
110,85.,85.,150.,85.,-82.,150.,0,0;                                  113P     85
110,-85.,85.,150.,85.,85.,150.,0,0;                                  115P     86
110,-85.,85.,0.,-85.,-82.,0.,0,0;                                    117P     87
110,-85.,-82.,0.,-85.,-82.,150.,0,0;                                 119P     88
110,-85.,85.,0.,-85.,85.,150.,0,0;                                   121P     89
110,85.,-82.,0.,85.,85.,0.,0,0;                                      123P     90
110,85.,-82.,0.,-85.,-82.,0.,0,0;                                    125P     91
110,85.,85.,0.,-85.,85.,0.,0,0;                                      127P     92
110,85.,85.,0.,85.,85.,150.,0,0;                                     129P     93
110,85.,-82.,0.,85.,-82.,150.,0,0;                                   131P     94
504,12,109,107,1,107,2,111,107,1,107,3,113,107,4,107,3,115,107,      133P     95
2,107,4,117,107,5,107,6,119,107,6,107,1,121,107,5,107,2,123,107,     133P     96
7,107,8,125,107,7,107,6,127,107,8,107,5,129,107,8,107,4,131,107,     133P     97
7,107,3,0,0;                                                         133P     98
116,0.,0.,150.,0,0,0;                                                135P     99
123,0.,0.,1.,0,0,0;                                                  137P    100
123,1.,0.,-0.,0,0,0;                                                 139P    101
190,135,137,139,0,0;                                                 141P    102
508,4,0,133,1,0,0,0,133,2,1,0,0,133,3,0,0,0,133,4,0,0,0,0;           143P    103
510,141,1,1,143,0,0;                                                 145P    104
116,-85.,0.,0.,0,0,0;                                                147P    105
123,-1.,0.,0.,0,0,0;                                                 149P    106
123,0.,0.,1.,0,0,0;                                                  151P    107
190,147,149,151,0,0;                                                 153P    108
508,4,0,133,5,1,0,0,133,6,1,0,0,133,1,1,0,0,133,7,0,0,0,0;           155P    109
510,153,1,1,155,0,0;                                                 157P    110
116,0.,0.,0.,0,0,0;                                                  159P    111
123,0.,0.,-1.,0,0,0;                                                 161P    112
123,-1.,0.,0.,0,0,0;                                                 163P    113
190,159,161,163,0,0;                                                 165P    114
508,4,0,133,8,0,0,0,133,9,1,0,0,133,5,0,0,0,133,10,0,0,0,0;          167P    115
510,165,1,1,167,0,0;                                                 169P    116
116,0.,85.,0.,0,0,0;                                                 171P    117
123,0.,1.,0.,0,0,0;                                                  173P    118
123,0.,-0.,1.,0,0,0;                                                 175P    119
190,171,173,175,0,0;                                                 177P    120
508,4,0,133,7,1,0,0,133,4,1,0,0,133,11,0,0,0,133,10,1,0,0,0;         179P    121
510,177,1,1,179,0,0;                                                 181P    122
116,85.,0.,0.,0,0,0;                                                 183P    123
123,1.,0.,0.,0,0,0;                                                  185P    124
123,0.,0.,-1.,0,0,0;                                                 187P    125
190,183,185,187,0,0;                                                 189P    126
508,4,0,133,12,0,0,0,133,8,1,0,0,133,11,1,0,0,133,3,1,0,0,0;         191P    127
510,189,1,1,191,0,0;                                                 193P    128
116,0.,-82.,0.,0,0,0;                                                195P    129
123,0.,1.,0.,0,0,0;                                                  197P    130
123,0.,-0.,1.,0,0,0;                                                 199P    131
190,195,197,199,0,0;                                                 201P    132
508,4,0,133,2,1,0,0,133,12,0,0,0,133,9,1,0,0,133,6,1,0,0,0;          203P    133
510,201,1,1,203,0,0;                                                 205P    134
514,6,145,1,157,1,169,1,181,1,193,1,205,0,0,0;                       207P    135
186,207,1,0;0,0;                                                     209P    136
502,8,-85.,28.2154714348553,3.00000000000004,85.,                    211P    137
28.2154714348553,3.,-85.,-82.,3.00000000000004,85.,-82.,3.,-85.,     211P    138
28.2154714348553,3.64153152077051D-14,85.,28.2154714348553,          211P    139
6.66133814775095D-16,85.,-82.,6.66133814775095D-16,-85.,-82.,        211P    140
3.64153152077051D-14,0,0;                                            211P    141
110,-85.,28.2154714348553,3.,85.,28.2154714348553,3.,0,0;            213P    142
110,-85.,-82.,3.00000000000004,-85.,28.2154714348552,                215P    143
3.00000000000004,0,0;                                                215P    144
110,85.,-82.,3.,-85.,-82.,3.,0,0;                                    217P    145
110,85.,28.2154714348552,3.,85.,-82.,3.,0,0;                         219P    146
110,-85.,28.2154714348553,3.64153152077051D-14,-85.,                 221P    147
28.2154714348553,3.00000000000004,0,0;                               221P    148
110,85.,28.2154714348553,6.66133814775096D-16,85.,                   223P    149
28.2154714348553,3.,0,0;                                             223P    150
110,85.,28.2154714348553,1.85407245112401D-14,-85.,                  225P    151
28.2154714348553,1.85407245112401D-14,0,0;                           225P    152
110,85.,-82.,6.66133814775096D-16,85.,-82.,3.,0,0;                   227P    153
110,85.,-82.,6.66133814775095D-16,85.,28.2154714348552,              229P    154
6.66133814775095D-16,0,0;                                            229P    155
110,-85.,-82.,3.64153152077051D-14,-85.,-82.,3.00000000000004,0,     231P    156
0;                                                                   231P    157
110,-85.,-82.,1.85407245112401D-14,85.,-82.,                         233P    158
1.85407245112401D-14,0,0;                                            233P    159
110,-85.,28.2154714348552,3.64153152077051D-14,-85.,-82.,            235P    160
3.64153152077051D-14,0,0;                                            235P    161
504,12,213,211,1,211,2,215,211,3,211,1,217,211,4,211,3,219,211,      237P    162
2,211,4,221,211,5,211,1,223,211,6,211,2,225,211,6,211,5,227,211,     237P    163
7,211,4,229,211,7,211,6,231,211,8,211,3,233,211,8,211,7,235,211,     237P    164
5,211,8,0,0;                                                         237P    165
116,0.,1.5,3.,0,0,0;                                                 239P    166
123,0.,0.,1.,0,0,0;                                                  241P    167
123,1.,0.,-0.,0,0,0;                                                 243P    168
190,239,241,243,0,0;                                                 245P    169
508,4,0,237,1,0,0,0,237,2,0,0,0,237,3,0,0,0,237,4,0,0,0,0;           247P    170
510,245,1,1,247,0,0;                                                 249P    171
116,0.,28.2154714348553,1.85407245112401D-14,0,0,0;                  251P    172
123,0.,1.,0.,0,0,0;                                                  253P    173
123,0.,-0.,1.,0,0,0;                                                 255P    174
190,251,253,255,0,0;                                                 257P    175
508,4,0,237,5,1,0,0,237,1,1,0,0,237,6,0,0,0,237,7,1,0,0,0;           259P    176
510,257,1,1,259,0,0;                                                 261P    177
116,85.,1.5,6.66133814775095D-16,0,0,0;                              263P    178
123,1.,0.,-2.10289302311353D-16,0,0,0;                               265P    179
123,-2.10289302311353D-16,0.,-1.,0,0,0;                              267P    180
190,263,265,267,0,0;                                                 269P    181
508,4,0,237,6,1,0,0,237,4,1,0,0,237,8,0,0,0,237,9,1,0,0,0;           271P    182
510,269,1,1,271,0,0;                                                 273P    183
116,0.,-82.,1.85407245112401D-14,0,0,0;                              275P    184
123,0.,-1.,0.,0,0,0;                                                 277P    185
123,0.,0.,-1.,0,0,0;                                                 279P    186
190,275,277,279,0,0;                                                 281P    187
508,4,0,237,8,1,0,0,237,3,1,0,0,237,10,0,0,0,237,11,1,0,0,0;         283P    188
510,281,1,1,283,0,0;                                                 285P    189
116,0.,1.5,1.85407245112401D-14,0,0,0;                               287P    190
123,0.,0.,-1.,0,0,0;                                                 289P    191
123,-1.,0.,0.,0,0,0;                                                 291P    192
190,287,289,291,0,0;                                                 293P    193
508,4,0,237,12,0,0,0,237,7,0,0,0,237,9,0,0,0,237,11,0,0,0,0;         295P    194
510,293,1,1,295,0,0;                                                 297P    195
116,-85.,1.5,3.64153152077051D-14,0,0,0;                             299P    196
123,-1.,0.,2.10289302311353D-16,0,0,0;                               301P    197
123,2.10289302311353D-16,0.,1.,0,0,0;                                303P    198
190,299,301,303,0,0;                                                 305P    199
508,4,0,237,12,1,0,0,237,10,1,0,0,237,2,1,0,0,237,5,0,0,0,0;         307P    200
510,305,1,1,307,0,0;                                                 309P    201
514,6,249,1,261,1,273,1,285,1,297,1,309,1,0,0;                       311P    202
186,311,1,0;0,0;                                                     313P    203
S      3G      2D    314P    203                                        T      1
