                                                                        S      1
File generated by HOOPS Exchange Version 24.2.0                         S      2
                                                                        S      3
1H,,1H;,,10H3boxes.igs,14HHOOPS Exchange,6H24.2.0,32,24,8,56,15,,1.,2,2HG      1
MM,1000,1.,13H251210.084309,1D-05,1000000.,,,9,0,13H251210.084309;      G      2
     314       1       1       0       0       0       0       000020000D      1
     314    1000       0       2       0                               0D      2
     502       3       1       1   65535       0       0       000010001D      3
     502     100       0       2       1                    Box3       0D      4
     110       5       1       0       0       0       0       000010000D      5
     110    1000       0       1       0                               0D      6
     110       6       1       0       0       0       0       000010000D      7
     110    1000       0       1       0                               0D      8
     110       7       1       0       0       0       0       000010000D      9
     110    1000       0       1       0                               0D     10
     110       8       1       0       0       0       0       000010000D     11
     110    1000       0       1       0                               0D     12
     110       9       1       0       0       0       0       000010000D     13
     110    1000       0       1       0                               0D     14
     110      10       1       0       0       0       0       000010000D     15
     110    1000       0       1       0                               0D     16
     110      11       1       0       0       0       0       000010000D     17
     110    1000       0       1       0                               0D     18
     110      12       1       0       0       0       0       000010000D     19
     110    1000       0       1       0                               0D     20
     110      13       1       0       0       0       0       000010000D     21
     110    1000       0       1       0                               0D     22
     110      14       1       0       0       0       0       000010000D     23
     110    1000       0       1       0                               0D     24
     110      15       1       0       0       0       0       000010000D     25
     110    1000       0       1       0                               0D     26
     110      16       1       0       0       0       0       000010000D     27
     110    1000       0       1       0                               0D     28
     504      17       1       1   65535       0       0       000010001D     29
     504     100       0       3       1                    Box3       0D     30
     116      20       1       0       0       0       0       000010200D     31
     116    1000       0       1       0                               0D     32
     123      21       1       0       0       0       0       000010200D     33
     123    1000       0       1       0                               0D     34
     123      22       1       0       0       0       0       000010200D     35
     123    1000       0       1       0                               0D     36
     190      23       1       0       0       0       0       000010000D     37
     190    1000       0       1       1                               0D     38
     508      24       1       0       0       0       0       000010001D     39
     508    1000       0       1       1                               0D     40
     510      25       1       0   65535       0       0       000010001D     41
     510    1000       0       1       1                               0D     42
     116      26       1       0       0       0       0       000010200D     43
     116    1000       0       1       0                               0D     44
     123      27       1       0       0       0       0       000010200D     45
     123    1000       0       1       0                               0D     46
     123      28       1       0       0       0       0       000010200D     47
     123    1000       0       1       0                               0D     48
     190      29       1       0       0       0       0       000010000D     49
     190    1000       0       1       1                               0D     50
     508      30       1       0       0       0       0       000010001D     51
     508    1000       0       1       1                               0D     52
     510      31       1       0   65535       0       0       000010001D     53
     510    1000       0       1       1                               0D     54
     116      32       1       0       0       0       0       000010200D     55
     116    1000       0       1       0                               0D     56
     123      33       1       0       0       0       0       000010200D     57
     123    1000       0       1       0                               0D     58
     123      34       1       0       0       0       0       000010200D     59
     123    1000       0       1       0                               0D     60
     190      35       1       0       0       0       0       000010000D     61
     190    1000       0       1       1                               0D     62
     508      36       1       0       0       0       0       000010001D     63
     508    1000       0       1       1                               0D     64
     510      37       1       0   65535       0       0       000010001D     65
     510    1000       0       1       1                               0D     66
     116      38       1       0       0       0       0       000010200D     67
     116    1000       0       1       0                               0D     68
     123      39       1       0       0       0       0       000010200D     69
     123    1000       0       1       0                               0D     70
     123      40       1       0       0       0       0       000010200D     71
     123    1000       0       1       0                               0D     72
     190      41       1       0       0       0       0       000010000D     73
     190    1000       0       1       1                               0D     74
     508      42       1       0       0       0       0       000010001D     75
     508    1000       0       1       1                               0D     76
     510      43       1       0   65535       0       0       000010001D     77
     510    1000       0       1       1                               0D     78
     116      44       1       0       0       0       0       000010200D     79
     116    1000       0       1       0                               0D     80
     123      45       1       0       0       0       0       000010200D     81
     123    1000       0       1       0                               0D     82
     123      46       1       0       0       0       0       000010200D     83
     123    1000       0       1       0                               0D     84
     190      47       1       0       0       0       0       000010000D     85
     190    1000       0       1       1                               0D     86
     508      48       1       0       0       0       0       000010001D     87
     508    1000       0       1       1                               0D     88
     510      49       1       0   65535       0       0       000010001D     89
     510    1000       0       1       1                               0D     90
     116      50       1       0       0       0       0       000010200D     91
     116    1000       0       1       0                               0D     92
     123      51       1       0       0       0       0       000010200D     93
     123    1000       0       1       0                               0D     94
     123      52       1       0       0       0       0       000010200D     95
     123    1000       0       1       0                               0D     96
     190      53       1       0       0       0       0       000010000D     97
     190    1000       0       1       1                               0D     98
     508      54       1       0       0       0       0       000010001D     99
     508    1000       0       1       1                               0D    100
     510      55       1       0   65535       0       0       000010001D    101
     510    1000       0       1       1                               0D    102
     514      56       1       0       0       0       0       000010000D    103
     514    1000       0       1       1                               0D    104
     186      57       1       1   65535       0       0       000000001D    105
     186     100      -1       1       0                    Box3       0D    106
     502      58       1       0   65535       0       0       000010001D    107
     502    1000       0       5       1                    Box2       0D    108
     110      63       1       0       0       0       0       000010000D    109
     110    1000       0       1       0                               0D    110
     110      64       1       0       0       0       0       000010000D    111
     110    1000       0       2       0                               0D    112
     110      66       1       0       0       0       0       000010000D    113
     110    1000       0       1       0                               0D    114
     110      67       1       0       0       0       0       000010000D    115
     110    1000       0       1       0                               0D    116
     110      68       1       0       0       0       0       000010000D    117
     110    1000       0       2       0                               0D    118
     110      70       1       0       0       0       0       000010000D    119
     110    1000       0       2       0                               0D    120
     110      72       1       0       0       0       0       000010000D    121
     110    1000       0       2       0                               0D    122
     110      74       1       0       0       0       0       000010000D    123
     110    1000       0       1       0                               0D    124
     110      75       1       0       0       0       0       000010000D    125
     110    1000       0       2       0                               0D    126
     110      77       1       0       0       0       0       000010000D    127
     110    1000       0       2       0                               0D    128
     110      79       1       0       0       0       0       000010000D    129
     110    1000       0       2       0                               0D    130
     110      81       1       0       0       0       0       000010000D    131
     110    1000       0       2       0                               0D    132
     504      83       1       0   65535       0       0       000010001D    133
     504    1000       0       4       1                    Box2       0D    134
     116      87       1       0       0       0       0       000010200D    135
     116    1000       0       1       0                               0D    136
     123      88       1       0       0       0       0       000010200D    137
     123    1000       0       1       0                               0D    138
     123      89       1       0       0       0       0       000010200D    139
     123    1000       0       1       0                               0D    140
     190      90       1       0       0       0       0       000010000D    141
     190    1000       0       1       1                               0D    142
     508      91       1       0       0       0       0       000010001D    143
     508    1000       0       1       1                               0D    144
     510      92       1       0   65535       0       0       000010001D    145
     510    1000       0       1       1                               0D    146
     116      93       1       0       0       0       0       000010200D    147
     116    1000       0       1       0                               0D    148
     123      94       1       0       0       0       0       000010200D    149
     123    1000       0       1       0                               0D    150
     123      95       1       0       0       0       0       000010200D    151
     123    1000       0       1       0                               0D    152
     190      96       1       0       0       0       0       000010000D    153
     190    1000       0       1       1                               0D    154
     508      97       1       0       0       0       0       000010001D    155
     508    1000       0       1       1                               0D    156
     510      98       1       0   65535       0       0       000010001D    157
     510    1000       0       1       1                               0D    158
     116      99       1       0       0       0       0       000010200D    159
     116    1000       0       1       0                               0D    160
     123     100       1       0       0       0       0       000010200D    161
     123    1000       0       1       0                               0D    162
     123     101       1       0       0       0       0       000010200D    163
     123    1000       0       1       0                               0D    164
     190     102       1       0       0       0       0       000010000D    165
     190    1000       0       1       1                               0D    166
     508     103       1       0       0       0       0       000010001D    167
     508    1000       0       1       1                               0D    168
     510     104       1       0   65535       0       0       000010001D    169
     510    1000       0       1       1                               0D    170
     116     105       1       0       0       0       0       000010200D    171
     116    1000       0       1       0                               0D    172
     123     106       1       0       0       0       0       000010200D    173
     123    1000       0       1       0                               0D    174
     123     107       1       0       0       0       0       000010200D    175
     123    1000       0       1       0                               0D    176
     190     108       1       0       0       0       0       000010000D    177
     190    1000       0       1       1                               0D    178
     508     109       1       0       0       0       0       000010001D    179
     508    1000       0       1       1                               0D    180
     510     110       1       0   65535       0       0       000010001D    181
     510    1000       0       1       1                               0D    182
     116     111       1       0       0       0       0       000010200D    183
     116    1000       0       1       0                               0D    184
     123     112       1       0       0       0       0       000010200D    185
     123    1000       0       1       0                               0D    186
     123     113       1       0       0       0       0       000010200D    187
     123    1000       0       1       0                               0D    188
     190     114       1       0       0       0       0       000010000D    189
     190    1000       0       1       1                               0D    190
     508     115       1       0       0       0       0       000010001D    191
     508    1000       0       1       1                               0D    192
     510     116       1       0   65535       0       0       000010001D    193
     510    1000       0       1       1                               0D    194
     116     117       1       0       0       0       0       000010200D    195
     116    1000       0       1       0                               0D    196
     123     118       1       0       0       0       0       000010200D    197
     123    1000       0       1       0                               0D    198
     123     119       1       0       0       0       0       000010200D    199
     123    1000       0       1       0                               0D    200
     190     120       1       0       0       0       0       000010000D    201
     190    1000       0       1       1                               0D    202
     508     121       1       0       0       0       0       000010001D    203
     508    1000       0       1       1                               0D    204
     510     122       1       0   65535       0       0       000010001D    205
     510    1000       0       1       1                               0D    206
     514     123       1       0       0       0       0       000010000D    207
     514    1000       0       1       1                               0D    208
     186     124       1       0   65535       0       0       000000001D    209
     186    1000       0       1       0                    Box2       0D    210
     502     125       1       0   65535       0       0       000010001D    211
     502    1000       0       7       1                    Box1       0D    212
     110     132       1       0       0       0       0       000010000D    213
     110    1000       0       2       0                               0D    214
     110     134       1       0       0       0       0       000010000D    215
     110    1000       0       2       0                               0D    216
     110     136       1       0       0       0       0       000010000D    217
     110    1000       0       2       0                               0D    218
     110     138       1       0       0       0       0       000010000D    219
     110    1000       0       2       0                               0D    220
     110     140       1       0       0       0       0       000010000D    221
     110    1000       0       2       0                               0D    222
     110     142       1       0       0       0       0       000010000D    223
     110    1000       0       2       0                               0D    224
     110     144       1       0       0       0       0       000010000D    225
     110    1000       0       2       0                               0D    226
     110     146       1       0       0       0       0       000010000D    227
     110    1000       0       2       0                               0D    228
     110     148       1       0       0       0       0       000010000D    229
     110    1000       0       2       0                               0D    230
     110     150       1       0       0       0       0       000010000D    231
     110    1000       0       2       0                               0D    232
     110     152       1       0       0       0       0       000010000D    233
     110    1000       0       2       0                               0D    234
     110     154       1       0       0       0       0       000010000D    235
     110    1000       0       2       0                               0D    236
     504     156       1       0   65535       0       0       000010001D    237
     504    1000       0       4       1                    Box1       0D    238
     116     160       1       0       0       0       0       000010200D    239
     116    1000       0       1       0                               0D    240
     123     161       1       0       0       0       0       000010200D    241
     123    1000       0       2       0                               0D    242
     123     163       1       0       0       0       0       000010200D    243
     123    1000       0       1       0                               0D    244
     190     164       1       0       0       0       0       000010000D    245
     190    1000       0       1       1                               0D    246
     508     165       1       0       0       0       0       000010001D    247
     508    1000       0       1       1                               0D    248
     510     166       1       0   65535       0       0       000010001D    249
     510    1000       0       1       1                               0D    250
     116     167       1       0       0       0       0       000010200D    251
     116    1000       0       1       0                               0D    252
     123     168       1       0       0       0       0       000010200D    253
     123    1000       0       1       0                               0D    254
     123     169       1       0       0       0       0       000010200D    255
     123    1000       0       2       0                               0D    256
     190     171       1       0       0       0       0       000010000D    257
     190    1000       0       1       1                               0D    258
     508     172       1       0       0       0       0       000010001D    259
     508    1000       0       1       1                               0D    260
     510     173       1       0   65535       0       0       000010001D    261
     510    1000       0       1       1                               0D    262
     116     174       1       0       0       0       0       000010200D    263
     116    1000       0       1       0                               0D    264
     123     175       1       0       0       0       0       000010200D    265
     123    1000       0       2       0                               0D    266
     123     177       1       0       0       0       0       000010200D    267
     123    1000       0       1       0                               0D    268
     190     178       1       0       0       0       0       000010000D    269
     190    1000       0       1       1                               0D    270
     508     179       1       0       0       0       0       000010001D    271
     508    1000       0       1       1                               0D    272
     510     180       1       0   65535       0       0       000010001D    273
     510    1000       0       1       1                               0D    274
     116     181       1       0       0       0       0       000010200D    275
     116    1000       0       1       0                               0D    276
     123     182       1       0       0       0       0       000010200D    277
     123    1000       0       1       0                               0D    278
     123     183       1       0       0       0       0       000010200D    279
     123    1000       0       2       0                               0D    280
     190     185       1       0       0       0       0       000010000D    281
     190    1000       0       1       1                               0D    282
     508     186       1       0       0       0       0       000010001D    283
     508    1000       0       1       1                               0D    284
     510     187       1       0   65535       0       0       000010001D    285
     510    1000       0       1       1                               0D    286
     116     188       1       0       0       0       0       000010200D    287
     116    1000       0       1       0                               0D    288
     123     189       1       0       0       0       0       000010200D    289
     123    1000       0       2       0                               0D    290
     123     191       1       0       0       0       0       000010200D    291
     123    1000       0       1       0                               0D    292
     190     192       1       0       0       0       0       000010000D    293
     190    1000       0       1       1                               0D    294
     508     193       1       0       0       0       0       000010001D    295
     508    1000       0       1       1                               0D    296
     510     194       1       0   65535       0       0       000010001D    297
     510    1000       0       1       1                               0D    298
     116     195       1       0       0       0       0       000010200D    299
     116    1000       0       1       0                               0D    300
     123     196       1       0       0       0       0       000010200D    301
     123    1000       0       2       0                               0D    302
     123     198       1       0       0       0       0       000010200D    303
     123    1000       0       1       0                               0D    304
     190     199       1       0       0       0       0       000010000D    305
     190    1000       0       1       1                               0D    306
     508     200       1       0       0       0       0       000010001D    307
     508    1000       0       1       1                               0D    308
     510     201       1       0   65535       0       0       000010001D    309
     510    1000       0       1       1                               0D    310
     514     202       1       0       0       0       0       000010000D    311
     514    1000       0       1       1                               0D    312
     186     203       1       0   65535       0       0       000000001D    313
     186    1000       0       1       0                    Box1       0D    314
314,72.156867980957,23.9215679168701,23.9215679168701,5HCOLOR,0,       1P      1
0;                                                                     1P      2
502,8,-85.,-82.,150.,-85.,85.,150.,85.,-82.,150.,85.,85.,150.,         3P      3
-85.,85.,0.,-85.,-82.,0.,85.,-82.,0.,85.,85.,0.,0,0;                   3P      4
110,-85.,-82.,150.,-85.,85.,150.,0,0;                                  5P      5
110,-85.,-82.,150.,85.,-82.,150.,0,0;                                  7P      6
110,85.,85.,150.,85.,-82.,150.,0,0;                                    9P      7
110,-85.,85.,150.,85.,85.,150.,0,0;                                   11P      8
110,-85.,85.,0.,-85.,-82.,0.,0,0;                                     13P      9
110,-85.,-82.,0.,-85.,-82.,150.,0,0;                                  15P     10
110,-85.,85.,0.,-85.,85.,150.,0,0;                                    17P     11
110,85.,-82.,0.,85.,85.,0.,0,0;                                       19P     12
110,85.,-82.,0.,-85.,-82.,0.,0,0;                                     21P     13
110,85.,85.,0.,-85.,85.,0.,0,0;                                       23P     14
110,85.,85.,0.,85.,85.,150.,0,0;                                      25P     15
110,85.,-82.,0.,85.,-82.,150.,0,0;                                    27P     16
504,12,5,3,1,3,2,7,3,1,3,3,9,3,4,3,3,11,3,2,3,4,13,3,5,3,6,15,3,      29P     17
6,3,1,17,3,5,3,2,19,3,7,3,8,21,3,7,3,6,23,3,8,3,5,25,3,8,3,4,27,      29P     18
3,7,3,3,0,0;                                                          29P     19
116,0.,0.,150.,0,0,0;                                                 31P     20
123,0.,0.,1.,0,0,0;                                                   33P     21
123,1.,0.,-0.,0,0,0;                                                  35P     22
190,31,33,35,0,0;                                                     37P     23
508,4,0,29,1,0,0,0,29,2,1,0,0,29,3,0,0,0,29,4,0,0,0,0;                39P     24
510,37,1,1,39,0,0;                                                    41P     25
116,-85.,0.,0.,0,0,0;                                                 43P     26
123,-1.,0.,0.,0,0,0;                                                  45P     27
123,0.,0.,1.,0,0,0;                                                   47P     28
190,43,45,47,0,0;                                                     49P     29
508,4,0,29,5,1,0,0,29,6,1,0,0,29,1,1,0,0,29,7,0,0,0,0;                51P     30
510,49,1,1,51,0,0;                                                    53P     31
116,0.,0.,0.,0,0,0;                                                   55P     32
123,0.,0.,-1.,0,0,0;                                                  57P     33
123,-1.,0.,0.,0,0,0;                                                  59P     34
190,55,57,59,0,0;                                                     61P     35
508,4,0,29,8,0,0,0,29,9,1,0,0,29,5,0,0,0,29,10,0,0,0,0;               63P     36
510,61,1,1,63,0,0;                                                    65P     37
116,0.,85.,0.,0,0,0;                                                  67P     38
123,0.,1.,0.,0,0,0;                                                   69P     39
123,0.,-0.,1.,0,0,0;                                                  71P     40
190,67,69,71,0,0;                                                     73P     41
508,4,0,29,7,1,0,0,29,4,1,0,0,29,11,0,0,0,29,10,1,0,0,0;              75P     42
510,73,1,1,75,0,0;                                                    77P     43
116,85.,0.,0.,0,0,0;                                                  79P     44
123,1.,0.,0.,0,0,0;                                                   81P     45
123,0.,0.,-1.,0,0,0;                                                  83P     46
190,79,81,83,0,0;                                                     85P     47
508,4,0,29,12,0,0,0,29,8,1,0,0,29,11,1,0,0,29,3,1,0,0,0;              87P     48
510,85,1,1,87,0,0;                                                    89P     49
116,0.,-82.,0.,0,0,0;                                                 91P     50
123,0.,1.,0.,0,0,0;                                                   93P     51
123,0.,-0.,1.,0,0,0;                                                  95P     52
190,91,93,95,0,0;                                                     97P     53
508,4,0,29,2,1,0,0,29,12,0,0,0,29,9,1,0,0,29,6,1,0,0,0;               99P     54
510,97,1,1,99,0,0;                                                   101P     55
514,6,41,1,53,1,65,1,77,1,89,1,101,0,0,0;                            103P     56
186,103,1,0;0,0;                                                     105P     57
502,8,-85.,28.2154714348553,3.00000000000004,85.,                    107P     58
28.2154714348553,3.,-85.,-82.,3.00000000000004,85.,-82.,3.,-85.,     107P     59
28.2154714348553,3.64153152077051D-14,85.,28.2154714348553,          107P     60
6.66133814775095D-16,85.,-82.,6.66133814775095D-16,-85.,-82.,        107P     61
3.64153152077051D-14,0,0;                                            107P     62
110,-85.,28.2154714348553,3.,85.,28.2154714348553,3.,0,0;            109P     63
110,-85.,-82.,3.00000000000004,-85.,28.2154714348552,                111P     64
3.00000000000004,0,0;                                                111P     65
110,85.,-82.,3.,-85.,-82.,3.,0,0;                                    113P     66
110,85.,28.2154714348552,3.,85.,-82.,3.,0,0;                         115P     67
110,-85.,28.2154714348553,3.64153152077051D-14,-85.,                 117P     68
28.2154714348553,3.00000000000004,0,0;                               117P     69
110,85.,28.2154714348553,6.66133814775096D-16,85.,                   119P     70
28.2154714348553,3.,0,0;                                             119P     71
110,85.,28.2154714348553,1.85407245112401D-14,-85.,                  121P     72
28.2154714348553,1.85407245112401D-14,0,0;                           121P     73
110,85.,-82.,6.66133814775096D-16,85.,-82.,3.,0,0;                   123P     74
110,85.,-82.,6.66133814775095D-16,85.,28.2154714348552,              125P     75
6.66133814775095D-16,0,0;                                            125P     76
110,-85.,-82.,3.64153152077051D-14,-85.,-82.,3.00000000000004,0,     127P     77
0;                                                                   127P     78
110,-85.,-82.,1.85407245112401D-14,85.,-82.,                         129P     79
1.85407245112401D-14,0,0;                                            129P     80
110,-85.,28.2154714348552,3.64153152077051D-14,-85.,-82.,            131P     81
3.64153152077051D-14,0,0;                                            131P     82
504,12,109,107,1,107,2,111,107,3,107,1,113,107,4,107,3,115,107,      133P     83
2,107,4,117,107,5,107,1,119,107,6,107,2,121,107,6,107,5,123,107,     133P     84
7,107,4,125,107,7,107,6,127,107,8,107,3,129,107,8,107,7,131,107,     133P     85
5,107,8,0,0;                                                         133P     86
116,0.,1.5,3.,0,0,0;                                                 135P     87
123,0.,0.,1.,0,0,0;                                                  137P     88
123,1.,0.,-0.,0,0,0;                                                 139P     89
190,135,137,139,0,0;                                                 141P     90
508,4,0,133,1,0,0,0,133,2,0,0,0,133,3,0,0,0,133,4,0,0,0,0;           143P     91
510,141,1,1,143,0,0;                                                 145P     92
116,0.,28.2154714348553,1.85407245112401D-14,0,0,0;                  147P     93
123,0.,1.,0.,0,0,0;                                                  149P     94
123,0.,-0.,1.,0,0,0;                                                 151P     95
190,147,149,151,0,0;                                                 153P     96
508,4,0,133,5,1,0,0,133,1,1,0,0,133,6,0,0,0,133,7,1,0,0,0;           155P     97
510,153,1,1,155,0,0;                                                 157P     98
116,85.,1.5,6.66133814775095D-16,0,0,0;                              159P     99
123,1.,0.,-2.10289302311353D-16,0,0,0;                               161P    100
123,-2.10289302311353D-16,0.,-1.,0,0,0;                              163P    101
190,159,161,163,0,0;                                                 165P    102
508,4,0,133,6,1,0,0,133,4,1,0,0,133,8,0,0,0,133,9,1,0,0,0;           167P    103
510,165,1,1,167,0,0;                                                 169P    104
116,0.,-82.,1.85407245112401D-14,0,0,0;                              171P    105
123,0.,-1.,0.,0,0,0;                                                 173P    106
123,0.,0.,-1.,0,0,0;                                                 175P    107
190,171,173,175,0,0;                                                 177P    108
508,4,0,133,8,1,0,0,133,3,1,0,0,133,10,0,0,0,133,11,1,0,0,0;         179P    109
510,177,1,1,179,0,0;                                                 181P    110
116,0.,1.5,1.85407245112401D-14,0,0,0;                               183P    111
123,0.,0.,-1.,0,0,0;                                                 185P    112
123,-1.,0.,0.,0,0,0;                                                 187P    113
190,183,185,187,0,0;                                                 189P    114
508,4,0,133,12,0,0,0,133,7,0,0,0,133,9,0,0,0,133,11,0,0,0,0;         191P    115
510,189,1,1,191,0,0;                                                 193P    116
116,-85.,1.5,3.64153152077051D-14,0,0,0;                             195P    117
123,-1.,0.,2.10289302311353D-16,0,0,0;                               197P    118
123,2.10289302311353D-16,0.,1.,0,0,0;                                199P    119
190,195,197,199,0,0;                                                 201P    120
508,4,0,133,12,1,0,0,133,10,1,0,0,133,2,1,0,0,133,5,0,0,0,0;         203P    121
510,201,1,1,203,0,0;                                                 205P    122
514,6,145,1,157,1,169,1,181,1,193,1,205,1,0,0;                       207P    123
186,207,1,0;0,0;                                                     209P    124
502,8,-77.8892327271865,-117.566367948024,6.66133814775094D-16,      211P    125
76.6387674223999,-46.7066673434535,6.66133814775094D-16,             211P    126
-77.8892327271865,-117.566367948024,150.,76.6387674223999,           211P    127
-46.7066673434535,150.,-76.6387674223999,-120.293332656547,0.,       211P    128
77.8892327271865,-49.4336320519756,0.,77.8892327271865,              211P    129
-49.4336320519756,150.,-76.6387674223999,-120.293332656547,150.,     211P    130
0,0;                                                                 211P    131
110,-77.8892327271865,-117.566367948024,3.08148791101958D-30,        213P    132
76.6387674223999,-46.7066673434534,-3.08148791101958D-30,0,0;        213P    133
110,-77.8892327271865,-117.566367948024,150.,-77.8892327271865,      215P    134
-117.566367948024,0.,0,0;                                            215P    135
110,76.6387674223999,-46.7066673434535,150.,-77.8892327271865,       217P    136
-117.566367948024,150.,0,0;                                          217P    137
110,76.6387674223999,-46.7066673434535,1.4210854715202D-14,          219P    138
76.6387674223999,-46.7066673434535,150.,0,0;                         219P    139
110,-76.6387674223999,-120.293332656547,0.,-77.8892327271865,        221P    140
-117.566367948024,6.66133814775112D-16,0,0;                          221P    141
110,77.8892327271865,-49.4336320519756,-1.54074395550979D-30,        223P    142
76.6387674224,-46.7066673434535,6.66133814775092D-16,0,0;            223P    143
110,77.8892327271865,-49.4336320519756,-3.08148791101958D-30,        225P    144
-76.6387674223999,-120.293332656547,3.08148791101958D-30,0,0;        225P    145
110,77.8892327271865,-49.4336320519756,150.,76.6387674224,           227P    146
-46.7066673434535,150.,0,0;                                          227P    147
110,77.8892327271865,-49.4336320519756,150.,77.8892327271865,        229P    148
-49.4336320519756,1.4210854715202D-14,0,0;                           229P    149
110,-76.6387674223999,-120.293332656547,150.,-77.8892327271865,      231P    150
-117.566367948024,150.,0,0;                                          231P    151
110,-76.6387674223999,-120.293332656547,150.,77.8892327271865,       233P    152
-49.4336320519756,150.,0,0;                                          233P    153
110,-76.6387674223999,-120.293332656547,0.,-76.6387674223999,        235P    154
-120.293332656547,150.,0,0;                                          235P    155
504,12,213,211,1,211,2,215,211,3,211,1,217,211,4,211,3,219,211,      237P    156
2,211,4,221,211,5,211,1,223,211,6,211,2,225,211,6,211,5,227,211,     237P    157
7,211,4,229,211,7,211,6,231,211,8,211,3,233,211,8,211,7,235,211,     237P    158
5,211,8,0,0;                                                         237P    159
116,-0.625232652393275,-82.136517645739,75.,0,0,0;                   239P    160
123,-0.416821768262183,0.908988236174037,2.22044604925031D-16,0,     241P    161
0,0;                                                                 241P    162
123,9.25530248579291D-17,-2.01835933782765D-16,1.,0,0,0;             243P    163
190,239,241,243,0,0;                                                 245P    164
508,4,0,237,1,0,0,0,237,2,0,0,0,237,3,0,0,0,237,4,0,0,0,0;           247P    165
510,245,1,1,247,0,0;                                                 249P    166
116,0.625232652393268,-84.8634823542611,0.,0,0,0;                    251P    167
123,-9.25530248579292D-17,2.01835933782765D-16,-1.,0,0,0;            253P    168
123,-0.416821768262183,0.908988236174037,2.22044604925031D-16,0,     255P    169
0,0;                                                                 255P    170
190,251,253,255,0,0;                                                 257P    171
508,4,0,237,5,1,0,0,237,1,1,0,0,237,6,0,0,0,237,7,1,0,0,0;           259P    172
510,257,1,1,259,0,0;                                                 261P    173
116,77.8892327271865,-49.4336320519756,75.,0,0,0;                    263P    174
123,0.908988236174038,0.416821768262182,-3.62527989531715D-32,0,     265P    175
0,0;                                                                 265P    176
123,-0.416821768262182,0.908988236174038,0.,0,0,0;                   267P    177
190,263,265,267,0,0;                                                 269P    178
508,4,0,237,6,1,0,0,237,4,1,0,0,237,8,0,0,0,237,9,1,0,0,0;           271P    179
510,269,1,1,271,0,0;                                                 273P    180
116,0.625232652393282,-84.8634823542611,150.,0,0,0;                  275P    181
123,9.25530248579292D-17,-2.01835933782765D-16,1.,0,0,0;             277P    182
123,0.416821768262183,-0.908988236174037,-2.22044604925031D-16,      279P    183
0,0,0;                                                               279P    184
190,275,277,279,0,0;                                                 281P    185
508,4,0,237,8,1,0,0,237,3,1,0,0,237,10,0,0,0,237,11,1,0,0,0;         283P    186
510,281,1,1,283,0,0;                                                 285P    187
116,0.625232652393275,-84.8634823542611,75.,0,0,0;                   287P    188
123,0.416821768262183,-0.908988236174037,-2.22044604925031D-16,      289P    189
0,0,0;                                                               289P    190
123,-9.25530248579291D-17,2.01835933782765D-16,-1.,0,0,0;            291P    191
190,287,289,291,0,0;                                                 293P    192
508,4,0,237,12,0,0,0,237,7,0,0,0,237,9,0,0,0,237,11,0,0,0,0;         295P    193
510,293,1,1,295,0,0;                                                 297P    194
116,-76.6387674223999,-120.293332656547,75.,0,0,0;                   299P    195
123,-0.908988236174038,-0.416821768262182,3.62527989531715D-32,      301P    196
0,0,0;                                                               301P    197
123,0.416821768262182,-0.908988236174038,0.,0,0,0;                   303P    198
190,299,301,303,0,0;                                                 305P    199
508,4,0,237,12,1,0,0,237,10,1,0,0,237,2,1,0,0,237,5,0,0,0,0;         307P    200
510,305,1,1,307,0,0;                                                 309P    201
514,6,249,1,261,1,273,1,285,1,297,1,309,1,0,0;                       311P    202
186,311,1,0;0,0;                                                     313P    203
S      3G      2D    314P    203                                        T      1
