<svg xmlns="http://www.w3.org/2000/svg" version="1.1" width="1000" height="1000" viewBox="0 0 1000 1000">
<defs/>
  <g id="CBoxR">
    <path d="M 10,0 L 0,0 L 0,2 L 12,2 L 12,10 L 12,0 L 10,0 L 10,12 L 2,12 L 12,12 L 12,10 L 0,10 L 0,2 L 0,12 L 2,12 Z" stroke="#000" stroke-width="0.2" fill="none" vector-effect="non-scaling-stroke"/>
    <path d="M -33,-25 L 6,-25 L 6,-35 L 6,23 L -21,23 L -21,-25 L -33,-25 L 18,-25 L 18,13 L -21,13 L -21,23 L -21,-35 L 6,-35 L 6,13 L 18,13 Z" stroke="#FF0000" stroke-width="0.2" fill="none" vector-effect="non-scaling-stroke"/>
  </g>
</svg>
