<?xml version="1.0" encoding="UTF-8" standalone="no"?>
<svg
   viewBox="0 0 40 58"
   width="40mm"
   height="58mm"
   version="1.1"
   id="svg3"
   sodipodi:docname="CKBox_corrected.svg"
   inkscape:version="1.4 (86a8ad7, 2024-10-11)"
   xml:space="preserve"
   xmlns:inkscape="http://www.inkscape.org/namespaces/inkscape"
   xmlns:sodipodi="http://sodipodi.sourceforge.net/DTD/sodipodi-0.dtd"
   xmlns="http://www.w3.org/2000/svg"
   xmlns:svg="http://www.w3.org/2000/svg"><defs
     id="defs3" /><sodipodi:namedview
     id="namedview3"
     pagecolor="#ffffff"
     bordercolor="#000000"
     borderopacity="0.25"
     inkscape:showpageshadow="2"
     inkscape:pageopacity="0.0"
     inkscape:pagecheckerboard="0"
     inkscape:deskcolor="#d1d1d1"
     inkscape:document-units="mm"
     inkscape:zoom="7.6706354"
     inkscape:cx="13.101913"
     inkscape:cy="60.294874"
     inkscape:window-width="2560"
     inkscape:window-height="1369"
     inkscape:window-x="-8"
     inkscape:window-y="-8"
     inkscape:window-maximized="1"
     inkscape:current-layer="svg3" /><g
     id="g10"
     inkscape:label="KCBox"
     transform="matrix(0.06412759,0,0,0.06412759,13.739988,10.594985)"
     style="stroke-width:1.55939;stroke-dasharray:none"><path
       style="fill:none;stroke:#ff0000;stroke-width:1.55939;stroke-dasharray:none"
       d="m -110.68944,-36.775421 -0.0684,20.554688 c -0.0188,5.639018 -0.0224,10.8028594 -0.0117,14.580078 0.005,1.88860928 0.0136,3.4302943 0.0254,4.5117188 0.006,0.5407122 0.0122,0.9672158 0.0195,1.2636718 0.004,0.148228 0.008,0.2634227 0.0117,0.3457031 0.002,0.04114 0.006,0.073023 0.008,0.097656 0.002,0.024634 -6.6e-4,0.036413 0.008,0.058594 l 0.0137,0.03125 h 0.0332 c 0.032,0.034642 0.064,0.067115 0.13281,0.087891 0.0931,0.028125 0.22444,0.051403 0.4043,0.072266 0.35971,0.041724 0.9122,0.071714 1.7207,0.091797 1.61701,0.040166 4.25543,0.040883 8.394533,0.013672 l 10.574219,-0.070312 V -15.955078 -36.775391 h -10.632812 z"
       id="path9" /><path
       style="fill:none;stroke:#ff0000;stroke-width:1.55939;stroke-dasharray:none"
       d="m -151.46875,-119.46096 -20.88477,0.0684 -20.88671,0.0664 -0.0684,20.554686 c -0.0188,5.639015 -0.0222,10.803412 -0.0117,14.580078 0.005,1.888332 0.0138,3.43066 0.0254,4.511719 0.006,0.540529 0.0122,0.965464 0.0195,1.261718 0.004,0.148128 0.008,0.263531 0.0117,0.345703 0.002,0.04109 0.004,0.07308 0.006,0.09766 0.002,0.02457 0.001,0.03632 0.01,0.05859 l 0.0137,0.03125 h 0.0273 c 0.0189,0.01518 0.0328,0.03508 0.0606,0.04492 0.0468,0.01657 0.11047,0.02927 0.19336,0.04297 0.16576,0.0274 0.41064,0.05255 0.7539,0.07422 0.68653,0.04333 1.76221,0.07651 3.3457,0.101562 3.16698,0.05011 8.36719,0.06641 16.55665,0.06641 h 20.82812 v -20.953125 z"
       id="path7" /><path
       style="fill:none;stroke:#1a1a1a;stroke-width:1.55939;stroke-dasharray:none"
       d="m -189.93359,-164.43751 v 12.48633 12.38476 h -11.72266 -11.82422 v 41.054691 41.056641 l 6.20117,0.07031 6.10157,0.07031 v 20.720703 20.720703 l -6.10157,0.07031 -6.20117,0.07226 V 25.322243 66.37693 l 27.5,0.06641 27.40235,0.06836 0.0703,4.117187 0.0742,4.216797 h 27.29492 27.29492 v -4.123047 c 0,-1.734564 0.0166,-2.75845 0.0762,-3.361328 0.0298,-0.301439 0.0707,-0.497402 0.12305,-0.621094 0.0523,-0.123691 0.10984,-0.173321 0.1875,-0.203125 -0.0101,0.0039 0.0133,-0.0032 0.043,-0.0059 0.0296,-0.0026 0.0717,-0.0051 0.125,-0.0078 0.1067,-0.0053 0.25954,-0.01041 0.45508,-0.01563 0.39107,-0.01042 0.95558,-0.0197 1.67187,-0.0293 1.432588,-0.01919 3.476808,-0.03818 5.982423,-0.05273 5.011229,-0.02911 11.865226,-0.04687 19.353515,-0.04687 h 27.28125 V 45.962891 25.548828 l -4.216797,-0.07422 -4.117187,-0.07227 V 4.6816406 -16.039062 l 4.117187,-0.07227 4.216797,-0.07422 V -36.59375 -57.001953 l -4.216797,-0.07422 -4.117187,-0.07227 V -77.869147 -98.58985 l 4.117187,-0.07227 4.216797,-0.07227 v -20.41407 -20.4121 l -11.890625,-0.0703 -11.791015,-0.0684 -0.07617,-2.00195 -0.08008,-2.09961 h -11.544922 -11.548828 v 2.16991 2.07032 l -11.921878,-0.0703 -11.92383,-0.0684 -0.0703,-6.10157 -0.0723,-6.20116 h -11.54883 -11.54883 l -0.0703,6.20116 -0.0723,6.10157 h -11.98828 -11.98828 l -0.0684,-12.31837 -0.0703,-12.41991 H -178.377 Z"
       id="path5" /></g></svg>
