                                                                        S      1
File generated by HOOPS Exchange Version 24.2.0                         S      2
                                                                        S      3
1H,,1H;,,17Hjasonbox only.igs,14HHOOPS Exchange,6H24.2.0,32,24,8,56,15,,G      1
1.,2,2HMM,1000,1.,13H251209.142037,1D-05,1000000.,,,9,0,13H251209.142037G      2
;                                                                       G      3
     502       1       1       0   65535       0       0       000010001D      1
     502    1000       0       3       1                JASONBOX502    0D      2
     110       4       1       0       0       0       0       000010000D      3
     110    1000       0       2       0                               0D      4
     110       6       1       0       0       0       0       000010000D      5
     110    1000       0       1       0                               0D      6
     110       7       1       0       0       0       0       000010000D      7
     110    1000       0       1       0                               0D      8
     110       8       1       0       0       0       0       000010000D      9
     110    1000       0       1       0                               0D     10
     110       9       1       0       0       0       0       000010000D     11
     110    1000       0       1       0                               0D     12
     110      10       1       0       0       0       0       000010000D     13
     110    1000       0       1       0                               0D     14
     110      11       1       0       0       0       0       000010000D     15
     110    1000       0       2       0                               0D     16
     110      13       1       0       0       0       0       000010000D     17
     110    1000       0       1       0                               0D     18
     110      14       1       0       0       0       0       000010000D     19
     110    1000       0       1       0                               0D     20
     110      15       1       0       0       0       0       000010000D     21
     110    1000       0       1       0                               0D     22
     110      16       1       0       0       0       0       000010000D     23
     110    1000       0       1       0                               0D     24
     110      17       1       0       0       0       0       000010000D     25
     110    1000       0       1       0                               0D     26
     504      18       1       0   65535       0       0       000010001D     27
     504    1000       0       3       1                JASONBOX504    0D     28
     116      21       1       0       0       0       0       000010200D     29
     116    1000       0       1       0                               0D     30
     123      22       1       0       0       0       0       000010200D     31
     123    1000       0       1       0                               0D     32
     123      23       1       0       0       0       0       000010200D     33
     123    1000       0       1       0                               0D     34
     190      24       1       0       0       0       0       000010000D     35
     190    1000       0       1       1                               0D     36
     508      25       1       0       0       0       0       000010001D     37
     508    1000       0       1       1                               0D     38
     510      26       1       0   65535       0       0       000010001D     39
     510    1000       0       1       1                               0D     40
     116      27       1       0       0       0       0       000010200D     41
     116    1000       0       1       0                               0D     42
     123      28       1       0       0       0       0       000010200D     43
     123    1000       0       1       0                               0D     44
     123      29       1       0       0       0       0       000010200D     45
     123    1000       0       1       0                               0D     46
     190      30       1       0       0       0       0       000010000D     47
     190    1000       0       1       1                               0D     48
     508      31       1       0       0       0       0       000010001D     49
     508    1000       0       1       1                               0D     50
     510      32       1       0   65535       0       0       000010001D     51
     510    1000       0       1       1                               0D     52
     116      33       1       0       0       0       0       000010200D     53
     116    1000       0       1       0                               0D     54
     123      34       1       0       0       0       0       000010200D     55
     123    1000       0       1       0                               0D     56
     123      35       1       0       0       0       0       000010200D     57
     123    1000       0       1       0                               0D     58
     190      36       1       0       0       0       0       000010000D     59
     190    1000       0       1       1                               0D     60
     508      37       1       0       0       0       0       000010001D     61
     508    1000       0       1       1                               0D     62
     510      38       1       0   65535       0       0       000010001D     63
     510    1000       0       1       1                               0D     64
     116      39       1       0       0       0       0       000010200D     65
     116    1000       0       1       0                               0D     66
     123      40       1       0       0       0       0       000010200D     67
     123    1000       0       1       0                               0D     68
     123      41       1       0       0       0       0       000010200D     69
     123    1000       0       1       0                               0D     70
     190      42       1       0       0       0       0       000010000D     71
     190    1000       0       1       1                               0D     72
     508      43       1       0       0       0       0       000010001D     73
     508    1000       0       1       1                               0D     74
     510      44       1       0   65535       0       0       000010001D     75
     510    1000       0       1       1                               0D     76
     116      45       1       0       0       0       0       000010200D     77
     116    1000       0       1       0                               0D     78
     123      46       1       0       0       0       0       000010200D     79
     123    1000       0       1       0                               0D     80
     123      47       1       0       0       0       0       000010200D     81
     123    1000       0       1       0                               0D     82
     190      48       1       0       0       0       0       000010000D     83
     190    1000       0       1       1                               0D     84
     508      49       1       0       0       0       0       000010001D     85
     508    1000       0       1       1                               0D     86
     510      50       1       0   65535       0       0       000010001D     87
     510    1000       0       1       1                               0D     88
     116      51       1       0       0       0       0       000010200D     89
     116    1000       0       1       0                               0D     90
     123      52       1       0       0       0       0       000010200D     91
     123    1000       0       1       0                               0D     92
     123      53       1       0       0       0       0       000010200D     93
     123    1000       0       1       0                               0D     94
     190      54       1       0       0       0       0       000010000D     95
     190    1000       0       1       1                               0D     96
     508      55       1       0       0       0       0       000010001D     97
     508    1000       0       1       1                               0D     98
     510      56       1       0   65535       0       0       000010001D     99
     510    1000       0       1       1                               0D    100
     514      57       1       0       0       0       0       000010000D    101
     514    1000       0       1       1                               0D    102
     186      58       1       0   65535       0       0       000000001D    103
     186    1000       0       1       0                JASONBOX186    0D    104
502,8,-85.,-82.,6.66133814775094D-16,85.,-82.,                         1P      1
6.66133814775094D-16,-85.,-82.,150.,85.,-82.,150.,-85.,-85.,0.,        1P      2
85.,-85.,0.,85.,-85.,150.,-85.,-85.,150.,0,0;                          1P      3
110,-85.,-82.,3.08148791101958D-30,85.,-82.,                           3P      4
-3.08148791101958D-30,0,0;                                             3P      5
110,-85.,-82.,150.,-85.,-82.,0.,0,0;                                   5P      6
110,85.,-82.,150.,-85.,-82.,150.,0,0;                                  7P      7
110,85.,-82.,0.,85.,-82.,150.,0,0;                                     9P      8
110,-85.,-85.,0.,-85.,-82.,6.66133814775094D-16,0,0;                  11P      9
110,85.,-85.,0.,85.,-82.,6.66133814775094D-16,0,0;                    13P     10
110,85.,-85.,-3.08148791101958D-30,-85.,-85.,                         15P     11
3.08148791101958D-30,0,0;                                             15P     12
110,85.,-85.,150.,85.,-82.,150.,0,0;                                  17P     13
110,85.,-85.,150.,85.,-85.,0.,0,0;                                    19P     14
110,-85.,-85.,150.,-85.,-82.,150.,0,0;                                21P     15
110,-85.,-85.,150.,85.,-85.,150.,0,0;                                 23P     16
110,-85.,-85.,0.,-85.,-85.,150.,0,0;                                  25P     17
504,12,3,1,1,1,2,5,1,3,1,1,7,1,4,1,3,9,1,2,1,4,11,1,5,1,1,13,1,       27P     18
6,1,2,15,1,6,1,5,17,1,7,1,4,19,1,7,1,6,21,1,8,1,3,23,1,8,1,7,25,      27P     19
1,5,1,8,0,0;                                                          27P     20
116,0.,-82.,75.,0,0,0;                                                29P     21
123,0.,1.,2.22044604925031D-16,0,0,0;                                 31P     22
123,0.,-2.22044604925031D-16,1.,0,0,0;                                33P     23
190,29,31,33,0,0;                                                     35P     24
508,4,0,27,1,0,0,0,27,2,0,0,0,27,3,0,0,0,27,4,0,0,0,0;                37P     25
510,35,1,1,37,0,0;                                                    39P     26
116,-4.10536659470161D-46,-85.,0.,0,0,0;                              41P     27
123,-5.47382212626882D-48,2.22044604925032D-16,-1.,0,0,0;             43P     28
123,0.,1.,2.22044604925032D-16,0,0,0;                                 45P     29
190,41,43,45,0,0;                                                     47P     30
508,4,0,27,5,1,0,0,27,1,1,0,0,27,6,0,0,0,27,7,1,0,0,0;                49P     31
510,47,1,1,49,0,0;                                                    51P     32
116,85.,-85.,75.,0,0,0;                                               53P     33
123,1.,-1.63268091856641D-16,-3.62527989531715D-32,0,0,0;             55P     34
123,1.63268091856641D-16,1.,0.,0,0,0;                                 57P     35
190,53,55,57,0,0;                                                     59P     36
508,4,0,27,6,1,0,0,27,4,1,0,0,27,8,0,0,0,27,9,1,0,0,0;                61P     37
510,59,1,1,61,0,0;                                                    63P     38
116,4.10536659470161D-46,-85.,150.,0,0,0;                             65P     39
123,5.47382212626882D-48,-2.22044604925032D-16,1.,0,0,0;              67P     40
123,0.,-1.,-2.22044604925032D-16,0,0,0;                               69P     41
190,65,67,69,0,0;                                                     71P     42
508,4,0,27,8,1,0,0,27,3,1,0,0,27,10,0,0,0,27,11,1,0,0,0;              73P     43
510,71,1,1,73,0,0;                                                    75P     44
116,0.,-85.,75.,0,0,0;                                                77P     45
123,0.,-1.,-2.22044604925031D-16,0,0,0;                               79P     46
123,0.,2.22044604925031D-16,-1.,0,0,0;                                81P     47
190,77,79,81,0,0;                                                     83P     48
508,4,0,27,12,0,0,0,27,7,0,0,0,27,9,0,0,0,27,11,0,0,0,0;              85P     49
510,83,1,1,85,0,0;                                                    87P     50
116,-85.,-85.,75.,0,0,0;                                              89P     51
123,-1.,1.63268091856641D-16,3.62527989531715D-32,0,0,0;              91P     52
123,-1.63268091856641D-16,-1.,0.,0,0,0;                               93P     53
190,89,91,93,0,0;                                                     95P     54
508,4,0,27,12,1,0,0,27,10,1,0,0,27,2,1,0,0,27,5,0,0,0,0;              97P     55
510,95,1,1,97,0,0;                                                    99P     56
514,6,39,1,51,1,63,1,75,1,87,1,99,1,0,0;                             101P     57
186,101,1,0;0,0;                                                     103P     58
S      3G      3D    104P     58                                        T      1
