<svg xmlns="http://www.w3.org/2000/svg" version="1.1" width="1000" height="1000" viewBox="0 0 1000 1000">
<defs/>
  <g id="CKBox">
    <path d="M 2,0 L 12,0 L 12,2 L 22,2 L 22,0 L 32,0 L 32,2 L 42,2 L 42,0 L 52,0 L 52,5 L 53,5 L 53,11 L 52,11 L 52,17 L 55,17 L 55,23 L 52,23 L 52,28 L 52,34 L 58,34 L 58,28 Z" stroke="#000" stroke-width="0.2" fill="none" vector-effect="non-scaling-stroke"/>
    <path d="M 17 10 L 27 10 L 27 15 L 17 15 Z" stroke="#FF0000" stroke-width="0.2" fill="none" vector-effect="non-scaling-stroke"/>
    <path d="M 37 25 L 47 25 L 47 35 L 37 35 Z" stroke="#FF0000" stroke-width="0.2" fill="none" vector-effect="non-scaling-stroke"/>
  </g>
</svg>
