<svg xmlns="http://www.w3.org/2000/svg" version="1.1" width="1000" height="1000" viewBox="0 0 1000 1000">
<defs/>
  <g id="KCBoxFlat">
    <path d="M 0,0 L 3,0 L 3,0 L 6,0 L 6,0 L 11,0 L 11,0 L 13,0 L 13,0 L 17,0 L 17,0 L 23,0 L 23,0 L 27,0 L 27,0 L 29,0 L 29,0 L 34,0 L 34,0 L 38,0 L 38,0 L 38,0 L 38,0 L 40,0 L 40,0 L 40,0 L 40,0 L 40,0 L 40,0 L 0,0 L 0,0 L 0,0 Z" stroke="#000" stroke-width="0.2" fill="none" vector-effect="non-scaling-stroke"/>
    <path d="M 5 0 L 15 0 L 15 10 L 5 10 Z" stroke="#FF0000" stroke-width="0.2" fill="none" vector-effect="non-scaling-stroke"/>
    <path d="M 25 0 L 35 0 L 35 5 L 25 5 Z" stroke="#FF0000" stroke-width="0.2" fill="none" vector-effect="non-scaling-stroke"/>
  </g>
</svg>
