<?xml version="1.0" encoding="UTF-8" standalone="no"?>
<svg
   viewBox="0 0 40 58"
   width="40mm"
   height="58mm"
   version="1.1"
   id="svg3"
   sodipodi:docname="KCBox_corrected.svg"
   inkscape:version="1.4 (86a8ad7, 2024-10-11)"
   xml:space="preserve"
   xmlns:inkscape="http://www.inkscape.org/namespaces/inkscape"
   xmlns:sodipodi="http://sodipodi.sourceforge.net/DTD/sodipodi-0.dtd"
   xmlns="http://www.w3.org/2000/svg"
   xmlns:svg="http://www.w3.org/2000/svg"><defs
     id="defs3" /><sodipodi:namedview
     id="namedview3"
     pagecolor="#ffffff"
     bordercolor="#000000"
     borderopacity="0.25"
     inkscape:showpageshadow="2"
     inkscape:pageopacity="0.0"
     inkscape:pagecheckerboard="0"
     inkscape:deskcolor="#d1d1d1"
     inkscape:document-units="mm"
     inkscape:zoom="16"
     inkscape:cx="27.65625"
     inkscape:cy="27.59375"
     inkscape:window-width="2560"
     inkscape:window-height="1369"
     inkscape:window-x="-8"
     inkscape:window-y="-8"
     inkscape:window-maximized="1"
     inkscape:current-layer="g10" /><g
     id="g10"
     inkscape:label="KCBox"
     transform="matrix(0.06412759,0,0,0.06412759,13.739988,10.594985)"
     style="stroke-width:1.55939;stroke-dasharray:none"><path
       style="fill:none;stroke:#ff0000;stroke-width:0.825178;stroke-dasharray:none"
       d="m -110.68944,-36.775421 c -0.0567,11.759084 -0.0155,41.6113838 -0.0155,41.6113838 l 21.281462,0.02729 V -36.775391 h -10.632812 z"
       id="path9"
       sodipodi:nodetypes="cccccc" /><path
       style="fill:none;stroke:#ff0000;stroke-width:0.825178;stroke-dasharray:none"
       d="m -151.46875,-119.46096 -41.77148,0.1348 -0.2169,41.908197 41.98873,-0.13671 z"
       id="path7"
       sodipodi:nodetypes="ccccc" /><path
       style="fill:none;stroke:#1a1a1a;stroke-width:0.825178;stroke-dasharray:none"
       d="m -189.93359,-164.43751 v 12.48633 12.38476 h -11.72266 -11.82422 v 41.054691 41.056641 l 6.20117,0.07031 6.10157,0.07031 v 20.720703 20.720703 l -6.10157,0.07031 -6.20117,0.07226 V 25.322243 66.37693 l 27.5,0.06641 27.40235,0.06836 0.0703,4.117187 0.0742,4.216797 h 27.29492 27.29492 l 0.0677,-8.445349 c 0,0 23.378309,-0.01772 27.949988,-0.02147 h 27.28125 V 45.962891 25.548828 l -4.216797,-0.07422 -4.117187,-0.07227 V 4.6816406 -16.039062 l 4.117187,-0.07227 4.216797,-0.07422 V -36.59375 -57.001953 l -4.216797,-0.07422 -4.117187,-0.07227 V -77.869147 -98.58985 l 4.117187,-0.07227 4.216797,-0.07227 v -20.41407 -20.4121 l -11.890625,-0.0703 -11.791015,-0.0684 -0.07617,-2.00195 -0.08008,-2.09961 h -11.544922 -11.548828 v 2.16991 2.07032 l -11.921878,-0.0703 -11.92383,-0.0684 -0.0703,-6.10157 -0.0723,-6.20116 h -11.54883 -11.54883 l -0.0703,6.20116 -0.0723,6.10157 h -11.98828 -11.98828 l -0.0684,-12.31837 -0.0703,-12.41991 H -178.377 Z"
       id="path5"
       sodipodi:nodetypes="ccccccccccccccccccccccsccccccccccccccccccccccccccccccccccccccccc" /></g></svg>
