<svg xmlns="http://www.w3.org/2000/svg" version="1.1" width="1000mm" height="1000mm" viewBox="0 0 1000 1000">
<defs/>
  <g id="RigthLowerWall">
    <path d="M 0,0 L 78,0 L 78,167 L 0,167 Z" stroke="#000" stroke-width="0.2" fill="none" vector-effect="non-scaling-stroke"/>
  </g>
  <g id="TopDivider">
    <path d="M 0,0 L 60,0 L 60,170 L 0,170 Z" stroke="#000" stroke-width="0.2" fill="none" vector-effect="non-scaling-stroke"/>
  </g>
  <g id="MiddleShelf">
    <path d="M 0,0 L 170,0 L 170,170 L 0,170 Z" stroke="#000" stroke-width="0.2" fill="none" vector-effect="non-scaling-stroke"/>
  </g>
  <g id="Lid">
    <path d="M 0,0 L 163,0 L 163,28 L 166,28 L 166,56 L 163,56 L 163,106 L 166,106 L 166,134 L 163,134 L 163,162 L 0,162 Z" stroke="#000" stroke-width="0.2" fill="none" vector-effect="non-scaling-stroke"/>
  </g>
  <g id="LibTabB">
    <path d="M 225,116 L 232,116 L 192,156 L 194,158 L 158,194 L 156,192 L 119,228 L 120,228 L 116,232 L 76,192 L 74,194 L 38,158 L 40,156 L 4,119 L 0,116 L 40,76 L 38,74 L 74,38 L 76,40 L 116,0 L 116,7 L 7,116 L 116,225 Z" stroke="#000" stroke-width="0.2" fill="none" vector-effect="non-scaling-stroke"/>
  </g>
  <g id="LidTabA">
    <path d="M 225,116 L 232,116 L 192,156 L 194,158 L 158,194 L 156,192 L 119,228 L 120,228 L 116,232 L 76,192 L 74,194 L 38,158 L 40,156 L 4,119 L 0,116 L 40,76 L 38,74 L 74,38 L 76,40 L 116,0 L 116,7 L 7,116 L 116,225 Z" stroke="#000" stroke-width="0.2" fill="none" vector-effect="non-scaling-stroke"/>
  </g>
  <g id="RightLidtab">
    <path d="M 107,3 L 164,3 L 159,8 L 5,8 L 0,3 L 57,3 L 57,0 L 107,0 Z" stroke="#000" stroke-width="0.2" fill="none" vector-effect="non-scaling-stroke"/>
  </g>
  <g id="Bottom">
    <path d="M 0,0 L 170,0 L 170,170 L 0,170 Z" stroke="#000" stroke-width="0.2" fill="none" vector-effect="non-scaling-stroke"/>
  </g>
  <g id="LeftWall">
    <path d="M 0,75 L 3,75 L 3,147 L 0,147 L 0,150 L 170,150 L 170,0 L 0,0 Z" stroke="#000" stroke-width="0.2" fill="none" vector-effect="non-scaling-stroke"/>
  </g>
  <g id="RightWall">
    <path d="M 0,0 L 72,0 L 72,164 L 0,164 Z" stroke="#000" stroke-width="0.2" fill="none" vector-effect="non-scaling-stroke"/>
    <path d="M 66,107 L 69,107 L 69,57 L 66,57 Z" stroke="#f00" stroke-width="0.2" fill="none" vector-effect="non-scaling-stroke"/>
    <path d="M 66,57 L 66,29 L 63,29 L 63,57 Z" stroke="#f00" stroke-width="0.2" fill="none" vector-effect="non-scaling-stroke"/>
    <path d="M 66,135 L 66,107 L 63,107 L 63,135 Z" stroke="#f00" stroke-width="0.2" fill="none" vector-effect="non-scaling-stroke"/>
  </g>
  <g id="BackWall">
    <path d="M 0,0 L 150,0 L 150,170 L 0,170 Z" stroke="#000" stroke-width="0.2" fill="none" vector-effect="non-scaling-stroke"/>
  </g>
</svg>
