<svg xmlns="http://www.w3.org/2000/svg" version="1.1" width="482mm" height="266mm" viewBox="0 0 482 266">
<defs/>
  <g id="DHBottom">
    <path d="M 98,3 L 140,3 L 140,83 L 94,83 L 94,80 L 47,80 L 47,83 L 0,83 L 0,3 L 48,3 L 48,0 L 98,0 Z" stroke="#9600c8" stroke-width="0.2" fill="none" vector-effect="non-scaling-stroke"/>
  </g>
  <g id="MiddleShelf">
    <path d="M 113,3 L 167,3 L 167,60 L 170,60 L 170,110 L 167,110 L 167,167 L 113,167 L 113,170 L 63,170 L 63,167 L 3,167 L 3,110 L 0,110 L 0,60 L 3,60 L 3,3 L 63,3 L 63,0 L 113,0 Z" stroke="#9600c8" stroke-width="0.2" fill="none" vector-effect="non-scaling-stroke"/>
    <path d="M 58,83 L 58,86 L 112,86 L 112,83 Z" stroke="#960000" stroke-width="0.2" fill="none" vector-effect="non-scaling-stroke"/>
  </g>
  <g id="DHLeft">
    <path d="M 3,0 L 62,0 L 62,47 L 65,47 L 65,93 L 62,93 L 62,140 L 3,140 L 3,93 L 0,93 L 0,46 L 3,46 Z" stroke="#9600c8" stroke-width="0.2" fill="none" vector-effect="non-scaling-stroke"/>
  </g>
  <g id="DrawerBottom">
    <path d="M 0,0 L 162,0 L 162,166 L 0,166 Z" stroke="#9600c8" stroke-width="0.2" fill="none" vector-effect="non-scaling-stroke"/>
  </g>
  <g id="DrawerBack">
    <path d="M 0,0 L 162,0 L 162,71 L 0,71 Z" stroke="#9600c8" stroke-width="0.2" fill="none" vector-effect="non-scaling-stroke"/>
  </g>
  <g id="DrawerLeft">
    <path d="M 0,0 L 71,0 L 71,166 L 0,166 Z" stroke="#9600c8" stroke-width="0.2" fill="none" vector-effect="non-scaling-stroke"/>
  </g>
  <g id="DrawerRight">
    <path d="M 0,0 L 71,0 L 71,166 L 0,166 Z" stroke="#9600c8" stroke-width="0.2" fill="none" vector-effect="non-scaling-stroke"/>
  </g>
  <g id="DrawerFront">
    <path d="M 0,0 L 72,0 L 72,170 L 0,170 Z" stroke="#9600c8" stroke-width="0.2" fill="none" vector-effect="non-scaling-stroke"/>
  </g>
  <g id="TopDivider">
    <path d="M 41,3 L 60,3 L 60,167 L 41,167 L 41,170 L 22,170 L 22,167 L 3,167 L 3,112 L 0,112 L 0,58 L 3,58 L 3,3 L 22,3 L 22,0 L 41,0 Z" stroke="#9600c8" stroke-width="0.2" fill="none" vector-effect="non-scaling-stroke"/>
  </g>
  <g id="Lid">
    <path d="M 0,0 L 163,0 L 163,28 L 166,28 L 166,56 L 163,56 L 163,106 L 166,106 L 166,134 L 163,134 L 163,162 L 0,162 Z" stroke="#9600c8" stroke-width="0.2" fill="none" vector-effect="non-scaling-stroke"/>
    <path d="M 87,58 L 84,58 L 84,104 L 87,104 Z" stroke="#960000" stroke-width="0.2" fill="none" vector-effect="non-scaling-stroke"/>
  </g>
  <g id="LibTabB">
    <path d="M 225,116 L 232,116 L 192,156 L 194,158 L 158,194 L 156,192 L 116,232 L 76,192 L 74,194 L 38,158 L 40,156 L 0,116 L 40,76 L 38,74 L 74,38 L 76,40 L 116,0 L 116,7 L 7,116 L 116,225 Z" stroke="#9600c8" stroke-width="0.2" fill="none" vector-effect="non-scaling-stroke"/>
  </g>
  <g id="LidTabA">
    <path d="M 225,116 L 232,116 L 192,156 L 194,158 L 158,194 L 156,192 L 116,232 L 76,192 L 74,194 L 38,158 L 40,156 L 0,116 L 40,76 L 38,74 L 74,38 L 76,40 L 116,0 L 116,7 L 7,116 L 116,225 Z" stroke="#9600c8" stroke-width="0.2" fill="none" vector-effect="non-scaling-stroke"/>
  </g>
  <g id="RightLidtab">
    <path d="M 107,3 L 164,3 L 159,8 L 5,8 L 0,3 L 57,3 L 57,0 L 107,0 Z" stroke="#9600c8" stroke-width="0.2" fill="none" vector-effect="non-scaling-stroke"/>
  </g>
  <g id="Bottom">
    <path d="M 113,3 L 170,3 L 170,167 L 113,167 L 113,170 L 63,170 L 63,167 L 3,167 L 3,110 L 0,110 L 0,60 L 3,60 L 3,3 L 63,3 L 63,0 L 113,0 Z" stroke="#9600c8" stroke-width="0.2" fill="none" vector-effect="non-scaling-stroke"/>
  </g>
  <g id="LeftWall">
    <path d="M 90,167 L 120,167 L 120,170 L 150,170 L 150,0 L 75,0 L 75,3 L 3,3 L 3,0 L 0,0 L 0,57 L 3,57 L 3,107 L 0,107 L 0,170 L 30,170 L 30,167 L 60,167 L 60,170 L 90,170 Z" stroke="#9600c8" stroke-width="0.2" fill="none" vector-effect="non-scaling-stroke"/>
    <path d="M 78,57 L 78,107 L 75,107 L 75,57 Z" stroke="#960000" stroke-width="0.2" fill="none" vector-effect="non-scaling-stroke"/>
    <path d="M 137,60 L 140,60 L 140,110 L 137,110 Z" stroke="#960000" stroke-width="0.2" fill="none" vector-effect="non-scaling-stroke"/>
    <path d="M 144,60 L 147,60 L 147,110 L 144,110 Z" stroke="#960000" stroke-width="0.2" fill="none" vector-effect="non-scaling-stroke"/>
  </g>
  <g id="FrontA">
    <path d="M 0,0 L 60,0 L 60,3 L 110,3 L 110,0 L 170,0 L 170,75 L 0,75 Z" stroke="#9600c8" stroke-width="0.2" fill="none" vector-effect="non-scaling-stroke"/>
    <path d="M 110,65 L 110,62 L 60,62 L 60,65 Z" stroke="#960000" stroke-width="0.2" fill="none" vector-effect="non-scaling-stroke"/>
    <path d="M 110,72 L 110,69 L 60,69 L 60,72 Z" stroke="#960000" stroke-width="0.2" fill="none" vector-effect="non-scaling-stroke"/>
    <path d="M 84,22 L 84,41 L 87,41 L 87,22 Z" stroke="#960000" stroke-width="0.2" fill="none" vector-effect="non-scaling-stroke"/>
  </g>
  <g id="RigthLowerWall">
    <path d="M 0,0 L 30,0 L 30,3 L 60,3 L 60,0 L 78,0 L 78,63 L 75,63 L 75,113 L 78,113 L 78,167 L 3,167 L 3,170 L 0,170 L 0,113 L 3,113 L 3,63 L 0,63 Z" stroke="#9600c8" stroke-width="0.2" fill="none" vector-effect="non-scaling-stroke"/>
  </g>
  <g id="RightWall">
    <path d="M 0,0 L 72,0 L 72,164 L 0,164 Z" stroke="#9600c8" stroke-width="0.2" fill="none" vector-effect="non-scaling-stroke"/>
    <path d="M 4,104 L 4,54 L 1,54 L 1,104 Z" stroke="#960000" stroke-width="0.2" fill="none" vector-effect="non-scaling-stroke"/>
    <path d="M 66,107 L 69,107 L 69,57 L 66,57 Z" stroke="#960000" stroke-width="0.2" fill="none" vector-effect="non-scaling-stroke"/>
    <path d="M 66,57 L 66,29 L 63,29 L 63,57 Z" stroke="#960000" stroke-width="0.2" fill="none" vector-effect="non-scaling-stroke"/>
    <path d="M 66,135 L 66,107 L 63,107 L 63,135 Z" stroke="#960000" stroke-width="0.2" fill="none" vector-effect="non-scaling-stroke"/>
  </g>
  <g id="BackWall">
    <path d="M 0,0 L 167,0 L 167,30 L 170,30 L 170,60 L 167,60 L 167,90 L 170,90 L 170,120 L 167,120 L 167,150 L 110,150 L 110,147 L 60,147 L 60,150 L 3,150 L 3,120 L 0,120 L 0,90 L 3,90 L 3,72 L 0,72 Z" stroke="#9600c8" stroke-width="0.2" fill="none" vector-effect="non-scaling-stroke"/>
    <path d="M 110,75 L 110,72 L 60,72 L 60,75 Z" stroke="#960000" stroke-width="0.2" fill="none" vector-effect="non-scaling-stroke"/>
    <path d="M 110,13 L 110,10 L 60,10 L 60,13 Z" stroke="#960000" stroke-width="0.2" fill="none" vector-effect="non-scaling-stroke"/>
    <path d="M 110,6 L 110,3 L 60,3 L 60,6 Z" stroke="#960000" stroke-width="0.2" fill="none" vector-effect="non-scaling-stroke"/>
    <path d="M 87,53 L 87,34 L 84,34 L 84,53 Z" stroke="#960000" stroke-width="0.2" fill="none" vector-effect="non-scaling-stroke"/>
  </g>
</svg>
